<?xml version="1.0" encoding="UTF-8" standalone="no"?>
<!-- Created with Inkscape (http://www.inkscape.org/) -->
<svg xmlns:dc="http://purl.org/dc/elements/1.1/" xmlns:cc="http://creativecommons.org/ns#" xmlns:rdf="http://www.w3.org/1999/02/22-rdf-syntax-ns#" xmlns:svg="http://www.w3.org/2000/svg" xmlns="http://www.w3.org/2000/svg" xmlns:sodipodi="http://sodipodi.sourceforge.net/DTD/sodipodi-0.dtd" xmlns:inkscape="http://www.inkscape.org/namespaces/inkscape" width="531.6048mm" height="341.95755mm" viewBox="0 0 531.60479 341.95754" version="1.1" id="svg318" inkscape:version="0.92.1 r15371" sodipodi:docname="Hirnzeichnung-von-der-Seite.svg">
  <defs id="defs312"/>
  <sodipodi:namedview id="base" pagecolor="#ffffff" bordercolor="#666666" borderopacity="1.0" inkscape:pageopacity="0.0" inkscape:pageshadow="2" inkscape:zoom="0.35000002" inkscape:cx="886.73927" inkscape:cy="567.98554" inkscape:document-units="mm" inkscape:current-layer="layer1" showgrid="false" fit-margin-top="5" fit-margin-left="5" fit-margin-right="5" fit-margin-bottom="5" inkscape:snap-nodes="false" inkscape:window-width="1366" inkscape:window-height="704" inkscape:window-x="0" inkscape:window-y="27" inkscape:window-maximized="1"/>
  <metadata id="metadata315">
    <rdf:RDF>
      <cc:Work rdf:about="">
        <dc:format>image/svg+xml</dc:format>
        <dc:type rdf:resource="http://purl.org/dc/dcmitype/StillImage"/>
        <dc:title/>
      </cc:Work>
    </rdf:RDF>
  </metadata>
  <g inkscape:label="Ebene 1" inkscape:groupmode="layer" id="layer1" transform="translate(165.03107,142.76572)">
    <rect style="fill:none;fill-rule:evenodd;stroke:none;stroke-width:0.28222001;stroke-linejoin:round" id="rect87" height="21.040001" width="46.040001" y="21.291918" x="78.200607" class="BoundingBox"/>
    <path style="fill:#c5000b;fill-rule:evenodd;stroke:none;stroke-width:0.28222001;stroke-linejoin:round" inkscape:connector-curvature="0" id="path89" d="m 78.21061,26.551918 h 34.5 v -5.25 l 11.51,10.5 -11.51,10.51 v -5.26 h -34.5 z m 0,-5.25 z m 46.01,21.01 z"/>
    <path style="fill:none;fill-rule:evenodd;stroke:#3465a4;stroke-width:0.28222001;stroke-linejoin:round" inkscape:connector-curvature="0" id="path91" d="m 78.21061,26.551918 h 34.5 v -5.25 l 11.51,10.5 -11.51,10.51 v -5.26 h -34.5 z"/>
    <path style="fill:none;fill-rule:evenodd;stroke:#3465a4;stroke-width:0.28222001;stroke-linejoin:round" inkscape:connector-curvature="0" id="path93" d="M 78.21061,21.301918 Z"/>
    <path style="fill:none;fill-rule:evenodd;stroke:#3465a4;stroke-width:0.28222001;stroke-linejoin:round" inkscape:connector-curvature="0" id="path95" d="M 124.22061,42.311918 Z"/>
    <rect style="fill:none;fill-rule:evenodd;stroke:none;stroke-width:0.28222001;stroke-linejoin:round" id="rect73" height="121.46" width="55.09" y="-53.204762" x="4.8357139" class="BoundingBox"/>
    <path sodipodi:nodetypes="cccccccc" inkscape:connector-curvature="0" id="path58" d="M 63.819166,193.82522 H -159.66538 m 0,-331.22525 V 193.82522 H 63.819166 v -331.22525 m 0,0 H -159.66538" style="fill:#fffffb;fill-opacity:1;stroke:#000000;stroke-width:0.73138368;stroke-miterlimit:4;stroke-dasharray:none;stroke-opacity:1"/>
    <text id="text62" y="-51.927261" x="-74.200783" style="font-style:normal;font-weight:normal;font-size:10.58333302px;line-height:1.25;font-family:sans-serif;letter-spacing:0px;word-spacing:0px;fill:#000000;fill-opacity:1;stroke:none;stroke-width:0.26458332" xml:space="preserve" transform="rotate(90)"><tspan style="stroke-width:0.26458332" y="-51.927261" x="-74.200783" id="tspan60" sodipodi:role="line">Die Teile des Gehirns und ihre Aufgaben</tspan></text>
    <text id="text68" y="-30.610218" x="-102.92275" style="font-style:normal;font-weight:normal;font-size:10.58333302px;line-height:1.25;font-family:sans-serif;letter-spacing:0px;word-spacing:0px;fill:#000000;fill-opacity:1;stroke:none;stroke-width:0.26458332" xml:space="preserve" transform="rotate(90)"><tspan style="font-size:7.05555534px;stroke-width:0.26458332" y="-30.610218" x="-102.92275" id="tspan66" sodipodi:role="line">1. Das Großhirn von oben</tspan></text>
    <g style="fill-rule:evenodd;stroke-width:28.22200012;stroke-linejoin:round" id="id3" transform="matrix(0,0.01,-0.01,0,38.691737,-357.62129)">
      <rect class="BoundingBox" x="25000" y="2841" width="10597" height="12261" id="rect66" style="fill:none;stroke:none"/>
      <path d="m 29643,15076 c -109,-8 -338,-43 -507,-77 -170,-34 -444,-86 -608,-115 -225,-39 -389,-108 -662,-274 -199,-122 -407,-246 -462,-276 -55,-29 -290,-219 -521,-421 -382,-333 -749,-786 -841,-1037 -17,-47 -153,-233 -304,-415 -354,-429 -433,-595 -524,-1103 -42,-230 -94,-508 -116,-617 -104,-509 -123,-897 -63,-1276 35,-215 53,-556 43,-791 -20,-449 7,-543 249,-850 106,-135 126,-202 127,-419 0,-221 29,-312 198,-627 109,-202 198,-402 198,-444 0,-195 155,-557 346,-808 116,-152 222,-306 236,-342 54,-142 520,-812 520,-748 0,38 -21,90 -47,116 -34,34 -6,62 95,98 79,27 147,44 151,38 4,-6 70,-120 147,-254 165,-286 290,-441 356,-441 80,0 54,99 -57,218 -59,62 -189,282 -290,488 -274,557 -344,680 -396,697 -72,24 -57,-49 62,-306 60,-129 95,-248 77,-264 -17,-16 -91,-42 -164,-57 -115,-24 -143,-9 -219,117 -47,79 -102,179 -120,223 -19,44 -94,166 -167,273 -157,227 -160,255 -48,436 132,216 117,812 -30,1120 -117,246 -162,296 -229,254 -24,-14 5,-96 65,-184 139,-205 185,-444 101,-528 -95,-95 -339,-33 -371,96 -14,55 -51,111 -82,123 -31,11 -110,156 -176,321 -92,230 -114,342 -93,481 23,149 11,195 -67,266 -52,47 -150,194 -217,328 -110,219 -118,267 -86,500 19,142 28,281 20,309 -8,28 -27,166 -42,306 l -26,255 128,-94 c 70,-52 151,-145 179,-207 36,-78 65,-98 97,-66 67,66 -10,189 -247,398 -176,155 -200,197 -200,357 0,100 10,182 23,182 77,0 434,-203 477,-271 52,-84 206,-114 206,-40 0,63 -265,252 -492,353 l -201,89 37,254 c 89,609 182,1072 219,1095 23,14 75,-35 117,-110 74,-130 188,-184 188,-89 0,52 -182,321 -232,343 -110,49 76,428 367,746 116,128 311,407 433,621 221,386 496,694 896,1003 l 207,160 136,-156 c 82,-92 221,-184 345,-226 114,-38 284,-128 379,-200 154,-117 247,-136 247,-52 0,48 -426,317 -586,370 -154,51 -384,243 -384,319 0,50 618,435 771,481 730,220 1890,325 2008,182 68,-82 82,-70 -257,-220 -274,-122 -361,-208 -361,-357 0,-42 -33,-113 -74,-157 -40,-45 -59,-95 -42,-112 60,-60 182,64 229,233 41,143 82,186 265,270 262,121 338,126 422,25 52,-63 55,-114 16,-269 l -49,-191 -85,158 c -80,148 -153,206 -153,121 0,-112 106,-316 164,-316 54,0 62,-34 41,-165 -15,-91 -28,-377 -28,-636 l -1,-471 -143,41 c -78,22 -187,41 -240,41 -54,0 -146,48 -205,107 -59,59 -184,119 -278,134 -93,14 -278,46 -409,69 -303,54 -533,54 -533,1 0,-49 86,-76 353,-113 109,-15 238,-35 287,-43 48,-9 124,-18 168,-20 43,-2 69,-19 57,-39 -12,-19 23,-91 77,-159 94,-118 106,-121 274,-70 132,39 222,41 357,4 270,-72 286,-109 233,-537 -68,-555 -68,-555 -234,-338 -230,302 -390,386 -729,386 -161,-1 -366,-27 -457,-59 -183,-63 -386,-233 -386,-323 0,-85 63,-72 159,34 141,157 318,220 626,226 379,6 537,-75 740,-382 164,-247 242,-582 196,-839 l -23,-131 -309,10 c -378,12 -442,31 -647,192 -113,89 -172,112 -194,76 -18,-29 4,-80 52,-116 145,-111 520,-274 635,-277 l 110,-2 -132,-108 c -183,-150 -382,-179 -615,-90 -203,77 -284,205 -353,554 -81,407 -201,593 -201,311 0,-124 89,-508 157,-678 25,-63 14,-79 -51,-69 -175,26 -541,-182 -637,-361 -68,-127 -96,-582 -44,-718 39,-102 59,-116 110,-74 47,39 53,81 22,162 -112,296 -27,584 221,748 156,103 209,115 416,94 131,-14 301,-57 379,-98 193,-100 432,-53 670,132 105,82 245,162 312,178 115,29 121,22 121,-124 0,-223 -165,-724 -260,-791 -89,-62 -446,-742 -446,-849 0,-143 75,-54 235,281 157,326 296,462 363,353 64,-103 23,-561 -66,-731 -146,-281 -276,-377 -541,-401 -130,-12 -374,-86 -552,-167 -282,-129 -338,-141 -485,-101 -364,98 -675,374 -966,858 -96,159 -119,14 -25,-154 l 95,-169 -164,-173 c -129,-136 -190,-259 -279,-569 l -115,-396 -216,13 c -220,13 -507,166 -590,314 -27,47 -54,56 -84,26 -56,-56 7,-139 234,-310 128,-97 237,-137 419,-153 l 246,-22 -8,-215 c -5,-148 -57,-315 -165,-531 -171,-340 -196,-467 -92,-467 42,0 66,43 66,116 0,210 478,589 742,590 80,0 186,21 235,48 49,26 99,37 112,25 12,-13 29,-155 38,-317 18,-328 230,-991 318,-991 84,0 66,114 -59,361 -79,155 -122,325 -139,551 l -25,325 209,-89 c 115,-49 311,-101 436,-116 194,-22 259,-8 438,92 115,65 209,137 209,159 0,59 -39,51 -254,-53 -213,-104 -347,-99 -768,24 -305,90 -452,200 -568,426 -48,95 -107,172 -131,172 -78,0 -45,-143 67,-290 61,-80 110,-156 110,-170 0,-14 -80,-25 -178,-25 -196,0 -341,116 -438,351 -100,241 252,1149 446,1149 18,0 125,-80 237,-177 234,-203 536,-353 710,-353 65,0 228,52 361,115 133,63 371,133 530,155 158,23 354,82 434,132 l 148,91 -1,-125 c 0,-189 -84,-452 -172,-540 -43,-44 -182,-93 -308,-109 -346,-46 -518,-146 -598,-344 -88,-219 -88,-389 -2,-389 37,0 66,35 67,77 0,204 93,400 209,445 90,35 578,140 652,140 38,0 49,-467 16,-616 -24,-105 -45,-257 -48,-339 -7,-179 -33,-202 -345,-303 -234,-76 -573,-346 -573,-457 0,-82 77,-55 166,58 47,59 172,147 279,194 107,48 254,113 327,145 73,32 142,64 154,70 12,7 26,-181 30,-417 4,-237 13,-629 19,-871 10,-409 1,-465 -128,-768 -76,-179 -129,-341 -118,-359 12,-19 39,-159 61,-313 35,-242 28,-306 -48,-468 -105,-222 -178,-234 -655,-101 -404,112 -692,258 -796,404 -74,104 -76,124 -17,173 53,44 105,45 237,5 93,-28 213,-51 266,-51 152,0 83,107 -89,138 -273,49 -370,115 -502,343 -72,124 -156,225 -187,225 -79,0 -75,-14 79,-265 224,-363 109,-442 -344,-237 -141,63 -295,150 -344,192 -48,43 -147,114 -220,158 -94,56 -76,29 63,-94 270,-240 303,-260 567,-347 151,-50 302,-144 429,-269 237,-235 461,-353 875,-463 520,-139 610,-112 751,225 52,126 56,221 18,515 -44,345 -40,374 74,660 77,191 122,392 126,554 5,215 18,253 88,253 76,0 81,-32 61,-408 -12,-224 -46,-487 -77,-584 -38,-123 -45,-294 -22,-564 32,-383 34,-389 237,-608 l 206,-222 330,-1 c 343,-1 918,142 780,195 -38,14 -182,-13 -320,-62 -217,-76 -290,-82 -538,-44 -419,66 -581,236 -610,640 -9,124 -23,285 -32,359 -22,186 121,620 198,600 318,-81 331,-76 664,252 176,173 354,315 395,315 101,0 148,82 66,114 -105,40 -313,-95 -510,-330 -198,-236 -355,-302 -548,-228 -154,58 -149,133 19,292 75,71 173,203 219,292 46,89 107,177 136,195 29,17 221,44 427,58 236,16 382,46 393,80 13,40 -74,49 -349,37 -464,-21 -585,-69 -695,-277 -97,-182 -199,-321 -234,-321 -12,0 -67,123 -122,274 l -100,275 77,508 c 122,799 72,766 522,349 270,-251 402,-346 435,-314 32,32 -13,97 -147,214 -105,93 -306,280 -445,416 -233,228 -254,264 -254,443 0,221 48,267 358,348 193,51 877,436 877,494 0,83 -91,57 -347,-97 -154,-92 -352,-181 -441,-197 -88,-17 -220,-65 -293,-107 l -134,-78 51,423 c 27,232 41,438 30,457 -10,19 -6,161 11,316 l 30,282 142,-142 c 78,-77 224,-166 325,-196 117,-35 224,-110 299,-208 111,-145 239,-204 239,-109 0,81 -357,374 -544,446 -116,46 -228,135 -304,243 -103,148 -120,216 -121,495 l -1,323 187,-145 c 103,-80 231,-191 285,-247 53,-55 127,-100 165,-100 86,0 90,114 4,147 -35,13 -194,130 -354,258 l -290,234 26,198 c 64,481 181,1016 234,1069 68,69 549,92 797,39 129,-28 395,-117 593,-199 198,-82 528,-213 734,-291 206,-78 397,-170 424,-204 80,-100 111,-70 82,83 -31,168 39,386 124,386 33,0 189,-79 347,-174 270,-163 298,-171 468,-128 144,37 209,32 316,-21 157,-78 244,-10 111,87 -158,116 -382,151 -492,79 -95,-62 -120,-55 -396,111 -162,98 -331,178 -375,178 -109,0 -256,-156 -256,-270 0,-82 -18,-90 -138,-66 -76,15 -418,141 -761,279 -601,244 -639,253 -1097,269 l -474,16 v 367 c 0,271 24,422 89,576 87,201 92,205 175,131 75,-68 698,-365 817,-389 24,-5 44,17 44,48 0,31 -119,108 -265,170 -448,192 -472,209 -579,378 -128,203 -130,296 -11,680 124,401 125,664 5,859 -113,183 -174,500 -104,543 95,59 562,122 842,115 232,-7 359,-43 683,-193 628,-291 599,-264 446,-423 -158,-165 -391,-188 -466,-47 -26,48 -66,88 -90,88 -75,0 -45,-89 66,-200 159,-160 338,-143 553,51 l 177,159 205,-168 c 113,-92 331,-298 485,-456 256,-264 280,-304 280,-479 0,-106 -20,-229 -44,-274 -31,-58 -29,-92 5,-113 65,-41 126,61 126,212 1,67 17,121 36,121 19,0 130,-177 248,-394 118,-217 242,-405 277,-419 46,-18 42,8 -18,97 -45,67 -160,277 -257,467 -139,277 -277,452 -682,865 -578,592 -833,773 -1442,1023 -425,175 -438,178 -824,150 -703,-51 -838,-183 -627,-614 143,-292 151,-636 26,-1035 -48,-154 -88,-366 -88,-471 0,-106 -20,-246 -45,-311 -25,-66 -73,-399 -108,-742 -34,-342 -92,-761 -128,-931 -104,-488 -160,-924 -160,-1258 0,-244 -13,-308 -66,-308 -38,0 -66,41 -66,96 0,53 -33,132 -72,176 -68,75 -66,101 29,378 65,192 104,417 109,629 4,182 14,351 22,375 8,25 3,74 -11,111 -63,164 -72,540 -14,632 82,132 123,618 132,1551 4,537 27,861 69,1002 58,193 56,217 -24,331 -48,67 -116,179 -152,250 -63,123 -288,255 -406,239 -31,-4 -146,-14 -255,-23 z m 0,-2176 c 0,-72 -64,-47 -124,48 -52,84 -50,88 34,43 49,-27 90,-68 90,-91 z m 678,-4133 c -13,-285 -52,-719 -87,-965 -34,-245 -62,-642 -62,-882 -1,-478 -59,-766 -154,-766 -51,0 -58,82 -39,452 13,249 21,617 17,819 -4,233 13,391 48,432 30,36 70,294 91,581 49,685 78,847 150,847 49,0 55,-100 36,-518 z M 27254,7076 c 49,-79 46,-100 -23,-153 -117,-88 -160,-76 -130,36 15,55 27,124 27,154 1,84 61,66 126,-37 z m -971,-932 c 8,-107 -15,-203 -67,-274 -128,-177 -139,-162 -253,342 -27,121 -23,124 139,110 158,-13 168,-22 181,-178 z m 5584,8555 c 87,-409 86,-422 -42,-528 -323,-266 -384,-343 -357,-455 15,-60 39,-158 54,-219 30,-125 -54,-149 -202,-57 -113,71 -170,9 -77,-85 52,-51 182,-81 438,-98 284,-19 418,-53 603,-150 193,-101 282,-122 471,-110 l 233,15 141,-214 c 164,-252 236,-481 198,-633 -21,-85 -274,-497 -356,-581 -9,-9 -100,56 -203,144 -172,147 -259,193 -259,137 0,-13 85,-108 188,-212 103,-104 223,-243 266,-308 116,-173 180,-152 148,49 -25,155 -14,188 127,395 4,6 130,-20 279,-58 389,-99 889,-340 1040,-500 145,-153 259,-170 495,-71 87,36 165,66 174,66 8,0 69,-174 136,-386 67,-212 128,-352 136,-311 14,68 -99,459 -278,961 -39,110 -139,344 -222,522 -123,263 -165,318 -232,297 -51,-17 -112,9 -165,69 -102,114 -327,215 -479,215 -61,0 -178,59 -261,132 -168,148 -205,161 -205,70 0,-85 246,-285 389,-315 239,-51 486,-158 510,-220 13,-35 53,-64 87,-64 36,0 74,-62 90,-145 31,-168 148,-352 202,-318 21,12 8,82 -28,155 -36,72 -59,165 -51,206 7,41 89,-110 182,-336 92,-225 156,-421 143,-434 -14,-14 -25,-11 -25,6 0,17 -58,0 -130,-37 -188,-97 -278,-84 -418,62 -131,137 -698,402 -1050,490 -205,52 -255,98 -166,153 25,15 44,65 44,112 0,101 37,108 156,27 86,-59 677,-294 738,-294 18,0 32,25 32,55 0,31 -154,112 -342,182 -404,150 -506,234 -643,532 -57,123 -156,301 -220,395 -88,128 -117,226 -117,386 0,153 -18,214 -61,214 -74,0 -110,-118 -100,-329 6,-111 -11,-157 -59,-161 -162,-11 -340,19 -447,74 -156,81 -486,194 -568,195 -82,2 -177,196 -177,362 0,94 41,149 173,237 269,178 320,381 184,736 -66,174 -155,158 -117,-22 z m -3831,-469 c -13,-21 53,-90 148,-152 94,-62 228,-199 298,-303 70,-104 147,-189 170,-188 23,0 260,17 525,37 430,33 488,29 537,-38 30,-42 78,-62 105,-45 73,45 -70,188 -214,216 -64,12 -295,8 -514,-9 l -396,-30 -270,275 c -264,269 -340,316 -389,237 z m 1163,-30 c -31,-38 -113,-98 -181,-134 -163,-84 -165,-169 -4,-130 121,30 364,228 364,297 0,61 -118,39 -179,-33 z m 532,-64 c 0,-24 30,-44 66,-44 36,0 143,-69 237,-154 188,-170 226,-185 226,-92 0,34 -83,124 -185,198 -183,135 -344,178 -344,92 z m 3063,-91 c -58,-94 475,-392 702,-393 186,-1 78,109 -168,171 -107,26 -253,98 -325,159 -148,124 -168,130 -209,63 z m -4761,-647 c 59,-145 80,-615 29,-647 -86,-53 -681,-194 -1054,-251 -246,-37 -364,-74 -364,-113 0,-32 20,-59 45,-59 25,0 2,-59 -52,-132 -84,-114 -126,-132 -301,-132 -187,0 -310,-56 -310,-140 0,-18 129,-21 287,-7 281,27 287,25 287,-78 -1,-59 -50,-185 -109,-282 -121,-197 -139,-287 -57,-287 87,0 311,514 285,651 -16,83 12,168 94,283 98,137 151,170 316,192 364,49 682,116 886,187 215,74 261,60 689,-212 53,-34 113,-46 132,-26 40,40 -135,176 -399,310 -147,74 -186,118 -194,225 -26,317 -107,595 -174,595 -47,0 -58,-24 -36,-77 z m -777,-9 c -3,-25 -9,-71 -13,-101 -15,-114 91,-447 148,-466 44,-15 52,11 30,107 -16,70 -41,202 -56,293 -26,158 -97,268 -109,167 z m -588,-263 c -30,-49 143,-357 201,-357 58,0 49,66 -35,241 -75,158 -120,190 -166,116 z m 5687,-626 c -73,-23 -248,-43 -389,-43 -179,-1 -251,-17 -239,-54 13,-35 118,-49 323,-42 168,6 454,15 636,22 302,10 394,41 396,133 1,46 -568,34 -727,-16 z m -4297,-464 c -27,-45 -113,-212 -191,-369 -133,-267 -152,-286 -275,-273 -73,8 -186,40 -251,73 -113,55 -168,48 -168,-23 0,-18 89,-74 197,-124 250,-118 306,-218 246,-436 -60,-215 -86,-250 -248,-333 -146,-75 -265,-196 -229,-232 13,-13 97,21 187,74 l 165,97 -16,-194 c -12,-151 0,-195 51,-195 49,0 69,60 78,228 19,359 155,617 382,724 200,94 412,286 366,332 -15,15 -87,-16 -160,-67 -72,-52 -200,-123 -284,-158 -136,-57 -156,-57 -180,5 -16,43 14,101 79,152 57,46 150,197 206,338 55,140 120,280 144,311 30,39 29,73 -3,105 -34,34 -61,24 -96,-35 z m 1079,-102 c -16,-26 77,-92 212,-152 134,-59 285,-167 342,-243 110,-150 172,-174 172,-68 0,165 -653,581 -726,463 z m -3640,-268 c 0,-25 50,-64 110,-87 80,-31 111,-75 111,-160 0,-153 93,-472 150,-510 90,-61 112,17 48,170 -36,87 -66,225 -66,307 0,90 -35,183 -88,237 -93,92 -265,120 -265,43 z m 3328,-259 c -61,-60 2,-93 178,-93 109,0 199,18 199,39 0,41 -342,90 -377,54 z m -1719,-772 -352,-370 -380,-32 c -506,-41 -610,9 -701,340 -47,168 -242,363 -317,317 -23,-15 7,-79 68,-143 61,-64 124,-191 141,-282 41,-222 224,-351 535,-377 262,-22 287,-53 125,-159 -165,-108 -261,-283 -250,-454 9,-133 -25,-191 -261,-443 -257,-275 -269,-298 -247,-466 46,-344 350,-468 546,-223 56,69 101,141 101,160 1,70 -101,27 -184,-78 -109,-139 -191,-139 -282,0 -104,159 -53,295 225,597 209,227 242,286 242,440 0,148 31,212 184,379 165,178 509,398 554,353 9,-10 28,-129 42,-266 16,-154 45,-242 75,-232 47,17 48,174 3,457 -20,123 11,177 265,463 158,178 287,338 288,356 0,82 -92,8 -420,-337 z m 4257,135 c 0,-33 80,-84 179,-113 227,-68 624,-464 835,-834 85,-149 179,-271 210,-272 97,-2 58,104 -122,330 -236,296 -239,443 -8,374 65,-20 198,-60 295,-88 97,-29 391,-151 653,-271 440,-202 488,-215 629,-169 83,28 174,94 201,146 85,166 227,294 322,293 50,0 229,-90 397,-199 169,-109 326,-192 351,-184 97,33 67,112 -59,156 -73,26 -226,118 -339,204 -324,248 -570,188 -762,-185 -87,-170 -223,-164 -638,28 -211,97 -516,220 -679,272 -163,52 -339,115 -391,139 -64,30 -121,30 -176,-1 -66,-37 -116,-17 -259,100 -360,295 -639,415 -639,274 z m 3484,-70 c 0,-61 130,-180 196,-180 31,0 124,-13 206,-29 134,-27 143,-23 89,43 -32,39 -127,85 -210,100 -82,16 -161,46 -174,68 -32,51 -107,50 -107,-2 z m -3528,-199 c 0,-89 -32,-223 -71,-298 -54,-105 -59,-160 -23,-240 68,-150 155,-134 123,23 -15,77 -1,159 38,209 82,109 82,344 -1,413 -57,48 -66,32 -66,-107 z m 4145,-113 c 0,-24 20,-44 44,-44 24,0 44,20 44,44 0,24 -20,44 -44,44 -24,0 -44,-20 -44,-44 z m 45,-141 c 0,-32 20,-87 43,-124 35,-53 43,-48 44,31 0,53 -19,109 -44,124 -24,15 -43,1 -43,-31 z m -3952,-283 c 16,-143 62,-415 101,-605 85,-408 73,-425 -285,-426 -198,0 -252,19 -370,132 -152,145 -194,145 -148,0 35,-109 268,-264 398,-265 70,0 100,-46 141,-218 60,-254 185,-465 241,-409 22,22 1,122 -50,234 -134,295 -120,378 67,413 86,16 170,63 187,104 25,60 93,75 340,78 256,3 355,28 587,146 292,148 415,150 492,8 23,-44 112,-113 199,-154 137,-65 199,-68 512,-22 228,33 364,74 380,114 35,93 -5,111 -135,62 -64,-25 -243,-57 -398,-73 l -282,-29 -198,182 c -108,100 -227,182 -263,182 -36,0 -193,-62 -348,-138 -155,-75 -312,-150 -348,-165 -36,-15 -175,-18 -309,-6 l -242,22 -34,176 c -18,97 -58,334 -88,526 -34,219 -77,357 -116,370 -49,16 -55,-30 -31,-239 z m -2769,-96 c -12,-20 -3,-64 19,-100 55,-86 52,-317 -5,-468 -26,-68 -36,-184 -21,-257 37,-191 285,-572 338,-519 28,28 -7,123 -100,272 -141,228 -142,233 -88,492 71,345 -31,760 -143,580 z m 5690,-140 c -91,-207 -95,-237 -31,-258 27,-9 79,58 117,148 l 68,165 190,-186 c 166,-163 209,-184 360,-171 222,18 223,98 2,116 -131,11 -208,54 -335,187 -91,96 -194,174 -230,174 -35,0 -99,-79 -141,-175 z m -6078,106 c -4,-23 -9,-200 -11,-393 -4,-479 -55,-481 -673,-30 -222,162 -313,166 -675,29 -143,-54 -282,-69 -496,-55 -307,22 -354,-6 -238,-140 33,-39 103,-219 155,-401 228,-801 288,-970 344,-970 76,0 74,24 -24,287 -103,276 -148,507 -98,507 20,0 49,60 64,133 24,123 351,483 440,484 20,0 72,43 114,96 l 77,95 195,-131 c 107,-71 309,-198 448,-281 l 254,-150 v -235 c 0,-170 18,-241 68,-260 103,-40 112,-6 64,246 -38,205 -33,246 43,343 76,96 84,154 61,447 -15,186 -45,356 -66,379 -24,27 -41,27 -46,0 z m -1578,-718 c -98,-93 -178,-206 -178,-250 0,-127 -59,-35 -113,177 l -49,194 202,16 c 111,9 228,20 259,24 32,5 -23,-68 -121,-161 z m 8711,335 c -10,-31 -30,-224 -46,-430 -52,-695 -98,-958 -172,-981 -22,-6 -98,61 -169,149 -165,203 -209,475 -103,636 41,63 64,126 51,140 -44,44 -154,-81 -203,-232 -73,-219 7,-449 244,-704 165,-177 197,-237 174,-329 -43,-170 -106,-223 -264,-223 -213,0 -323,117 -375,394 -55,296 -132,385 -367,424 -101,17 -209,51 -240,76 -78,63 -127,0 -70,-91 29,-46 117,-80 229,-89 208,-15 316,-128 316,-330 0,-69 22,-166 49,-216 30,-56 32,-101 6,-118 -60,-39 -143,-208 -143,-289 0,-114 63,-79 149,81 l 81,150 156,-65 c 85,-36 203,-53 262,-39 98,25 102,20 53,-72 -29,-54 -88,-129 -131,-167 -43,-37 -120,-233 -171,-434 -100,-396 -218,-674 -358,-842 -84,-101 -98,-104 -321,-54 -189,42 -261,41 -384,-10 -195,-79 -242,-60 -488,195 -137,141 -263,226 -386,258 -275,72 -506,139 -568,164 -30,13 -55,-6 -55,-41 0,-74 137,-134 485,-211 196,-43 283,-95 454,-267 245,-247 370,-292 603,-215 188,62 473,-1 517,-115 30,-80 -184,-361 -346,-453 -69,-39 -146,-134 -172,-211 -79,-238 -160,-268 -600,-219 -132,15 -238,112 -309,281 -63,151 -147,193 -147,75 0,-90 77,-238 188,-359 81,-90 407,-180 551,-152 116,22 41,-86 -340,-489 -334,-353 -435,-432 -651,-511 -346,-126 -339,-127 -378,73 -35,174 -139,311 -194,256 -16,-15 -7,-73 20,-127 27,-55 62,-183 77,-284 28,-182 25,-187 -152,-277 -99,-50 -179,-101 -179,-113 0,-65 156,2 411,178 160,109 316,198 348,198 234,0 1140,906 1394,1395 27,52 146,191 264,309 136,136 251,307 315,469 56,140 138,301 182,358 94,119 234,477 330,847 37,142 105,299 151,349 149,158 268,497 354,1011 94,556 161,1348 115,1348 -17,0 -38,-25 -47,-55 z m -3068,-864 c 0,-71 204,-226 382,-288 145,-52 253,-55 550,-20 397,48 430,59 365,124 -26,26 -152,25 -343,-5 -365,-57 -557,-26 -727,117 -130,109 -227,140 -227,72 z m -602,-570 c -42,-139 -77,-352 -78,-474 -3,-218 -1,-221 195,-318 247,-120 401,-125 535,-16 130,105 77,172 -72,92 -93,-50 -143,-49 -320,5 -255,79 -273,152 -149,601 48,172 75,324 61,338 -62,62 -101,10 -172,-228 z m -6015,-367 c -77,-107 -92,-177 -75,-341 34,-333 162,-714 240,-714 49,0 60,27 40,99 -187,655 -195,757 -71,916 104,132 110,176 25,176 -34,0 -106,-61 -159,-136 z m 7565,-705 c -305,-283 -348,-309 -471,-282 -102,23 -130,16 -115,-30 11,-33 92,-66 179,-73 140,-12 182,11 350,189 104,112 254,244 333,294 l 144,89 206,-136 c 113,-75 234,-136 268,-136 113,0 537,137 565,182 53,86 -24,93 -241,22 -298,-97 -349,-92 -578,60 -109,73 -222,132 -251,133 -29,0 -204,-140 -389,-312 z m -1465,-625 c -107,-137 -133,-337 -96,-736 58,-623 15,-739 -472,-1288 -204,-229 -370,-558 -370,-733 0,-92 10,-101 66,-55 36,30 66,82 66,114 0,133 170,415 474,784 176,214 332,437 347,494 20,82 99,133 363,233 186,71 382,143 437,159 95,29 143,157 59,157 -23,0 -205,-70 -405,-154 -201,-85 -370,-148 -377,-142 -6,7 -36,195 -66,419 -48,362 -46,424 20,562 41,86 74,175 74,198 0,60 -69,53 -120,-12 z m -2587,-464 c -34,-68 -84,-239 -111,-382 -26,-143 -59,-271 -72,-284 -13,-13 -85,-1 -161,28 -75,28 -156,40 -179,25 -27,-16 -31,41 -13,151 17,102 12,189 -13,204 -44,28 -139,-194 -139,-326 0,-41 -120,-188 -265,-327 -236,-225 -329,-378 -230,-378 20,0 113,79 208,177 l 173,176 58,-199 c 37,-127 83,-199 128,-199 52,0 62,26 39,100 -80,261 -97,432 -50,498 46,61 67,61 217,-2 91,-38 178,-103 193,-145 33,-93 192,-274 242,-274 67,0 37,103 -58,205 -90,96 -91,106 -22,252 40,83 73,208 74,277 1,69 31,205 66,302 75,210 78,243 21,243 -23,0 -71,-55 -106,-122 z m -1104,-659 c -108,-57 -163,-59 -353,-14 -344,83 -442,55 -457,-132 -11,-123 23,-203 167,-397 99,-133 199,-248 223,-256 91,-32 34,134 -113,326 -152,199 -193,342 -113,392 22,14 134,-7 248,-45 227,-78 354,-62 506,61 132,107 57,151 -108,65 z m 964,-723 c -16,-26 -151,-103 -300,-170 -300,-135 -449,-272 -410,-375 38,-99 96,-83 154,43 28,61 102,135 166,164 100,45 124,41 176,-34 123,-179 159,-206 208,-158 33,33 25,71 -28,129 -102,113 -93,154 60,267 73,54 122,118 108,141 -35,56 -97,53 -134,-7 z m 3244,-282 c -132,-85 -270,-157 -307,-159 -211,-14 -246,-22 -266,-62 -13,-25 61,-50 170,-58 152,-11 230,12 375,110 100,68 241,144 312,168 71,25 137,70 147,100 35,107 -192,55 -431,-99 z m -3572,-617 c 0,-90 261,-221 321,-161 31,32 9,62 -72,99 -64,29 -117,70 -117,90 0,21 -29,37 -66,37 -36,0 -66,-29 -66,-65 z" id="path68" inkscape:connector-curvature="0" style="fill:#454545;stroke:none"/>
    </g>
    <text xml:space="preserve" style="font-style:normal;font-weight:normal;font-size:10.58333302px;line-height:1.25;font-family:sans-serif;letter-spacing:0px;word-spacing:0px;fill:#000000;fill-opacity:1;stroke:none;stroke-width:0.26458332" x="59.532661" y="-30.610218" id="text93" transform="rotate(90)"><tspan sodipodi:role="line" id="tspan91" x="59.532661" y="-30.610218" style="font-size:7.05555534px;stroke-width:0.26458332">2. Das Gehirn von der Seite</tspan></text>
    <g style="fill-rule:evenodd;stroke-width:28.22200012;stroke-linejoin:round" id="id4-6" transform="matrix(0,0.00932469,0.00896684,0,-155.2057,21.133279)">
      <rect class="BoundingBox" x="7082" y="2901" width="5509" height="12146" id="rect73-7" style="fill:none;stroke:none"/>
    </g>
    <g style="fill-rule:evenodd;stroke-width:28.22200012;stroke-linejoin:round" id="id8" transform="matrix(-0.00896684,0,0,0.00932469,40.859301,-105.76817)">
      <rect style="fill:none;stroke:none" id="rect109" height="13433" width="13650" y="16968" x="3599" class="BoundingBox"/>
      <path style="fill:#373737;stroke:none" inkscape:connector-curvature="0" id="path111" d="m 12670,30343 c -26,-129 -40,-253 -136,-1234 -91,-936 -119,-1045 -306,-1253 -276,-304 -689,-1024 -950,-1653 -159,-377 -245,-505 -327,-472 -62,23 -331,96 -596,164 -265,67 -481,146 -481,177 0,86 383,631 523,743 67,55 268,165 445,246 355,160 429,270 133,195 -105,-26 -189,-21 -189,12 0,122 239,506 530,855 168,200 352,496 409,657 138,393 234,1239 141,1239 -39,0 -93,-253 -115,-562 -48,-630 -105,-771 -508,-1258 -306,-370 -535,-768 -535,-930 0,-56 -153,-230 -341,-387 -187,-156 -397,-394 -464,-528 -69,-134 -133,-253 -143,-265 -10,-12 -311,36 -669,107 -553,108 -702,112 -997,31 -504,-143 -981,-594 -1187,-1127 l -170,-441 -649,-179 c -778,-215 -1571,-599 -1838,-889 -239,-260 -487,-861 -606,-1470 -118,-601 4,-1359 319,-1984 623,-1234 2139,-2246 4279,-2856 3414,-973 7061,394 8461,3169 689,1365 726,3110 102,4681 l -183,462 -339,-51 c -185,-29 -337,-38 -337,-21 0,17 98,114 217,214 322,271 432,583 310,879 -166,397 -1430,1259 -2322,1581 -469,171 -1170,193 -1488,47 -117,-54 -129,-24 -100,232 19,162 53,497 78,749 22,251 61,617 86,815 25,198 25,362 0,362 -25,0 -50,-26 -57,-57 z m 1397,-2227 c 699,-236 1972,-1029 2220,-1382 208,-297 144,-616 -179,-908 -329,-296 -367,-301 -2894,-405 -983,-39 -1250,-25 -1620,81 -270,79 -426,164 -404,217 21,48 124,298 230,552 228,548 649,1270 918,1570 402,447 955,535 1729,275 z m -4834,-2054 477,-88 29,-387 c 18,-212 28,-391 26,-398 -3,-5 -501,-84 -1105,-175 -605,-90 -1232,-198 -1393,-240 -160,-43 -305,-63 -322,-46 -83,83 244,769 468,981 468,442 889,523 1820,353 z m 1346,-339 c 311,-95 427,-166 398,-240 -23,-58 -40,-130 -40,-163 0,-31 -164,-64 -361,-72 -198,-9 -427,-23 -508,-31 -110,-12 -160,46 -201,242 -67,320 -14,477 149,432 67,-19 320,-94 563,-168 z m 928,-293 227,-103 -358,-7 c -289,-5 -350,17 -315,108 53,138 148,140 446,2 z m 5244,-458 c 627,-1540 496,-3443 -330,-4799 -1057,-1738 -2803,-2779 -5135,-3063 -2768,-335 -6363,1225 -7289,3166 -165,348 -222,594 -253,1112 -34,585 -14,745 171,1309 163,505 268,696 481,883 307,269 1164,678 1694,811 192,46 406,106 473,134 105,39 124,-14 124,-344 0,-317 36,-427 191,-582 294,-294 1067,-618 1820,-760 504,-97 811,-207 1176,-424 676,-402 1123,-526 2011,-556 l 759,-25 -743,70 c -782,76 -1754,387 -2134,687 -112,88 -542,232 -995,335 -962,217 -1660,517 -1862,799 -168,237 -192,593 -53,769 119,150 976,320 2579,513 2194,265 2551,273 3129,81 279,-93 523,-152 544,-131 22,22 -92,81 -252,131 -158,51 -318,118 -352,151 -80,72 2192,184 2670,131 195,-21 418,-14 499,15 81,30 315,50 522,43 l 375,-10 z"/>
    </g>
    <path style="fill:#ffffff;fill-opacity:1;stroke:#000000;stroke-width:0.73138368;stroke-miterlimit:4;stroke-dasharray:none;stroke-opacity:1" d="M 361.20801,193.82613 H 137.72346 m 0,-331.22525 v 331.22525 h 223.48455 v -331.22525 m 0,0 H 137.72346" id="path280" inkscape:connector-curvature="0" sodipodi:nodetypes="cccccccc"/>
    <text xml:space="preserve" style="font-style:normal;font-weight:normal;font-size:10.58333302px;line-height:1.25;font-family:sans-serif;letter-spacing:0px;word-spacing:0px;fill:#000000;fill-opacity:1;stroke:none;stroke-width:0.26458332" x="-74.199875" y="-349.3161" id="text284" transform="rotate(90)"><tspan sodipodi:role="line" id="tspan282" x="-74.199875" y="-349.3161" style="stroke-width:0.26458332">Die Teile des Gehirns und ihre Aufgaben</tspan></text>
    <text xml:space="preserve" style="font-style:normal;font-weight:normal;font-size:10.58333302px;line-height:1.25;font-family:sans-serif;letter-spacing:0px;word-spacing:0px;fill:#000000;fill-opacity:1;stroke:none;stroke-width:0.26458332" x="-102.92184" y="-327.99905" id="text290" transform="rotate(90)"><tspan sodipodi:role="line" id="tspan288" x="-102.92184" y="-327.99905" style="font-size:7.05555534px;stroke-width:0.26458332">1. Das Großhirn von oben</tspan></text>
    <g style="fill-rule:evenodd;stroke-width:28.22200012;stroke-linejoin:round" id="g296" transform="matrix(0,0.01,-0.01,0,336.08057,-357.62038)">
      <rect style="fill:none;stroke:none" id="rect292" height="12261" width="10597" y="2841" x="25000" class="BoundingBox"/>
      <path style="fill:#454545;stroke:none" inkscape:connector-curvature="0" id="path294" d="m 29643,15076 c -109,-8 -338,-43 -507,-77 -170,-34 -444,-86 -608,-115 -225,-39 -389,-108 -662,-274 -199,-122 -407,-246 -462,-276 -55,-29 -290,-219 -521,-421 -382,-333 -749,-786 -841,-1037 -17,-47 -153,-233 -304,-415 -354,-429 -433,-595 -524,-1103 -42,-230 -94,-508 -116,-617 -104,-509 -123,-897 -63,-1276 35,-215 53,-556 43,-791 -20,-449 7,-543 249,-850 106,-135 126,-202 127,-419 0,-221 29,-312 198,-627 109,-202 198,-402 198,-444 0,-195 155,-557 346,-808 116,-152 222,-306 236,-342 54,-142 520,-812 520,-748 0,38 -21,90 -47,116 -34,34 -6,62 95,98 79,27 147,44 151,38 4,-6 70,-120 147,-254 165,-286 290,-441 356,-441 80,0 54,99 -57,218 -59,62 -189,282 -290,488 -274,557 -344,680 -396,697 -72,24 -57,-49 62,-306 60,-129 95,-248 77,-264 -17,-16 -91,-42 -164,-57 -115,-24 -143,-9 -219,117 -47,79 -102,179 -120,223 -19,44 -94,166 -167,273 -157,227 -160,255 -48,436 132,216 117,812 -30,1120 -117,246 -162,296 -229,254 -24,-14 5,-96 65,-184 139,-205 185,-444 101,-528 -95,-95 -339,-33 -371,96 -14,55 -51,111 -82,123 -31,11 -110,156 -176,321 -92,230 -114,342 -93,481 23,149 11,195 -67,266 -52,47 -150,194 -217,328 -110,219 -118,267 -86,500 19,142 28,281 20,309 -8,28 -27,166 -42,306 l -26,255 128,-94 c 70,-52 151,-145 179,-207 36,-78 65,-98 97,-66 67,66 -10,189 -247,398 -176,155 -200,197 -200,357 0,100 10,182 23,182 77,0 434,-203 477,-271 52,-84 206,-114 206,-40 0,63 -265,252 -492,353 l -201,89 37,254 c 89,609 182,1072 219,1095 23,14 75,-35 117,-110 74,-130 188,-184 188,-89 0,52 -182,321 -232,343 -110,49 76,428 367,746 116,128 311,407 433,621 221,386 496,694 896,1003 l 207,160 136,-156 c 82,-92 221,-184 345,-226 114,-38 284,-128 379,-200 154,-117 247,-136 247,-52 0,48 -426,317 -586,370 -154,51 -384,243 -384,319 0,50 618,435 771,481 730,220 1890,325 2008,182 68,-82 82,-70 -257,-220 -274,-122 -361,-208 -361,-357 0,-42 -33,-113 -74,-157 -40,-45 -59,-95 -42,-112 60,-60 182,64 229,233 41,143 82,186 265,270 262,121 338,126 422,25 52,-63 55,-114 16,-269 l -49,-191 -85,158 c -80,148 -153,206 -153,121 0,-112 106,-316 164,-316 54,0 62,-34 41,-165 -15,-91 -28,-377 -28,-636 l -1,-471 -143,41 c -78,22 -187,41 -240,41 -54,0 -146,48 -205,107 -59,59 -184,119 -278,134 -93,14 -278,46 -409,69 -303,54 -533,54 -533,1 0,-49 86,-76 353,-113 109,-15 238,-35 287,-43 48,-9 124,-18 168,-20 43,-2 69,-19 57,-39 -12,-19 23,-91 77,-159 94,-118 106,-121 274,-70 132,39 222,41 357,4 270,-72 286,-109 233,-537 -68,-555 -68,-555 -234,-338 -230,302 -390,386 -729,386 -161,-1 -366,-27 -457,-59 -183,-63 -386,-233 -386,-323 0,-85 63,-72 159,34 141,157 318,220 626,226 379,6 537,-75 740,-382 164,-247 242,-582 196,-839 l -23,-131 -309,10 c -378,12 -442,31 -647,192 -113,89 -172,112 -194,76 -18,-29 4,-80 52,-116 145,-111 520,-274 635,-277 l 110,-2 -132,-108 c -183,-150 -382,-179 -615,-90 -203,77 -284,205 -353,554 -81,407 -201,593 -201,311 0,-124 89,-508 157,-678 25,-63 14,-79 -51,-69 -175,26 -541,-182 -637,-361 -68,-127 -96,-582 -44,-718 39,-102 59,-116 110,-74 47,39 53,81 22,162 -112,296 -27,584 221,748 156,103 209,115 416,94 131,-14 301,-57 379,-98 193,-100 432,-53 670,132 105,82 245,162 312,178 115,29 121,22 121,-124 0,-223 -165,-724 -260,-791 -89,-62 -446,-742 -446,-849 0,-143 75,-54 235,281 157,326 296,462 363,353 64,-103 23,-561 -66,-731 -146,-281 -276,-377 -541,-401 -130,-12 -374,-86 -552,-167 -282,-129 -338,-141 -485,-101 -364,98 -675,374 -966,858 -96,159 -119,14 -25,-154 l 95,-169 -164,-173 c -129,-136 -190,-259 -279,-569 l -115,-396 -216,13 c -220,13 -507,166 -590,314 -27,47 -54,56 -84,26 -56,-56 7,-139 234,-310 128,-97 237,-137 419,-153 l 246,-22 -8,-215 c -5,-148 -57,-315 -165,-531 -171,-340 -196,-467 -92,-467 42,0 66,43 66,116 0,210 478,589 742,590 80,0 186,21 235,48 49,26 99,37 112,25 12,-13 29,-155 38,-317 18,-328 230,-991 318,-991 84,0 66,114 -59,361 -79,155 -122,325 -139,551 l -25,325 209,-89 c 115,-49 311,-101 436,-116 194,-22 259,-8 438,92 115,65 209,137 209,159 0,59 -39,51 -254,-53 -213,-104 -347,-99 -768,24 -305,90 -452,200 -568,426 -48,95 -107,172 -131,172 -78,0 -45,-143 67,-290 61,-80 110,-156 110,-170 0,-14 -80,-25 -178,-25 -196,0 -341,116 -438,351 -100,241 252,1149 446,1149 18,0 125,-80 237,-177 234,-203 536,-353 710,-353 65,0 228,52 361,115 133,63 371,133 530,155 158,23 354,82 434,132 l 148,91 -1,-125 c 0,-189 -84,-452 -172,-540 -43,-44 -182,-93 -308,-109 -346,-46 -518,-146 -598,-344 -88,-219 -88,-389 -2,-389 37,0 66,35 67,77 0,204 93,400 209,445 90,35 578,140 652,140 38,0 49,-467 16,-616 -24,-105 -45,-257 -48,-339 -7,-179 -33,-202 -345,-303 -234,-76 -573,-346 -573,-457 0,-82 77,-55 166,58 47,59 172,147 279,194 107,48 254,113 327,145 73,32 142,64 154,70 12,7 26,-181 30,-417 4,-237 13,-629 19,-871 10,-409 1,-465 -128,-768 -76,-179 -129,-341 -118,-359 12,-19 39,-159 61,-313 35,-242 28,-306 -48,-468 -105,-222 -178,-234 -655,-101 -404,112 -692,258 -796,404 -74,104 -76,124 -17,173 53,44 105,45 237,5 93,-28 213,-51 266,-51 152,0 83,107 -89,138 -273,49 -370,115 -502,343 -72,124 -156,225 -187,225 -79,0 -75,-14 79,-265 224,-363 109,-442 -344,-237 -141,63 -295,150 -344,192 -48,43 -147,114 -220,158 -94,56 -76,29 63,-94 270,-240 303,-260 567,-347 151,-50 302,-144 429,-269 237,-235 461,-353 875,-463 520,-139 610,-112 751,225 52,126 56,221 18,515 -44,345 -40,374 74,660 77,191 122,392 126,554 5,215 18,253 88,253 76,0 81,-32 61,-408 -12,-224 -46,-487 -77,-584 -38,-123 -45,-294 -22,-564 32,-383 34,-389 237,-608 l 206,-222 330,-1 c 343,-1 918,142 780,195 -38,14 -182,-13 -320,-62 -217,-76 -290,-82 -538,-44 -419,66 -581,236 -610,640 -9,124 -23,285 -32,359 -22,186 121,620 198,600 318,-81 331,-76 664,252 176,173 354,315 395,315 101,0 148,82 66,114 -105,40 -313,-95 -510,-330 -198,-236 -355,-302 -548,-228 -154,58 -149,133 19,292 75,71 173,203 219,292 46,89 107,177 136,195 29,17 221,44 427,58 236,16 382,46 393,80 13,40 -74,49 -349,37 -464,-21 -585,-69 -695,-277 -97,-182 -199,-321 -234,-321 -12,0 -67,123 -122,274 l -100,275 77,508 c 122,799 72,766 522,349 270,-251 402,-346 435,-314 32,32 -13,97 -147,214 -105,93 -306,280 -445,416 -233,228 -254,264 -254,443 0,221 48,267 358,348 193,51 877,436 877,494 0,83 -91,57 -347,-97 -154,-92 -352,-181 -441,-197 -88,-17 -220,-65 -293,-107 l -134,-78 51,423 c 27,232 41,438 30,457 -10,19 -6,161 11,316 l 30,282 142,-142 c 78,-77 224,-166 325,-196 117,-35 224,-110 299,-208 111,-145 239,-204 239,-109 0,81 -357,374 -544,446 -116,46 -228,135 -304,243 -103,148 -120,216 -121,495 l -1,323 187,-145 c 103,-80 231,-191 285,-247 53,-55 127,-100 165,-100 86,0 90,114 4,147 -35,13 -194,130 -354,258 l -290,234 26,198 c 64,481 181,1016 234,1069 68,69 549,92 797,39 129,-28 395,-117 593,-199 198,-82 528,-213 734,-291 206,-78 397,-170 424,-204 80,-100 111,-70 82,83 -31,168 39,386 124,386 33,0 189,-79 347,-174 270,-163 298,-171 468,-128 144,37 209,32 316,-21 157,-78 244,-10 111,87 -158,116 -382,151 -492,79 -95,-62 -120,-55 -396,111 -162,98 -331,178 -375,178 -109,0 -256,-156 -256,-270 0,-82 -18,-90 -138,-66 -76,15 -418,141 -761,279 -601,244 -639,253 -1097,269 l -474,16 v 367 c 0,271 24,422 89,576 87,201 92,205 175,131 75,-68 698,-365 817,-389 24,-5 44,17 44,48 0,31 -119,108 -265,170 -448,192 -472,209 -579,378 -128,203 -130,296 -11,680 124,401 125,664 5,859 -113,183 -174,500 -104,543 95,59 562,122 842,115 232,-7 359,-43 683,-193 628,-291 599,-264 446,-423 -158,-165 -391,-188 -466,-47 -26,48 -66,88 -90,88 -75,0 -45,-89 66,-200 159,-160 338,-143 553,51 l 177,159 205,-168 c 113,-92 331,-298 485,-456 256,-264 280,-304 280,-479 0,-106 -20,-229 -44,-274 -31,-58 -29,-92 5,-113 65,-41 126,61 126,212 1,67 17,121 36,121 19,0 130,-177 248,-394 118,-217 242,-405 277,-419 46,-18 42,8 -18,97 -45,67 -160,277 -257,467 -139,277 -277,452 -682,865 -578,592 -833,773 -1442,1023 -425,175 -438,178 -824,150 -703,-51 -838,-183 -627,-614 143,-292 151,-636 26,-1035 -48,-154 -88,-366 -88,-471 0,-106 -20,-246 -45,-311 -25,-66 -73,-399 -108,-742 -34,-342 -92,-761 -128,-931 -104,-488 -160,-924 -160,-1258 0,-244 -13,-308 -66,-308 -38,0 -66,41 -66,96 0,53 -33,132 -72,176 -68,75 -66,101 29,378 65,192 104,417 109,629 4,182 14,351 22,375 8,25 3,74 -11,111 -63,164 -72,540 -14,632 82,132 123,618 132,1551 4,537 27,861 69,1002 58,193 56,217 -24,331 -48,67 -116,179 -152,250 -63,123 -288,255 -406,239 -31,-4 -146,-14 -255,-23 z m 0,-2176 c 0,-72 -64,-47 -124,48 -52,84 -50,88 34,43 49,-27 90,-68 90,-91 z m 678,-4133 c -13,-285 -52,-719 -87,-965 -34,-245 -62,-642 -62,-882 -1,-478 -59,-766 -154,-766 -51,0 -58,82 -39,452 13,249 21,617 17,819 -4,233 13,391 48,432 30,36 70,294 91,581 49,685 78,847 150,847 49,0 55,-100 36,-518 z M 27254,7076 c 49,-79 46,-100 -23,-153 -117,-88 -160,-76 -130,36 15,55 27,124 27,154 1,84 61,66 126,-37 z m -971,-932 c 8,-107 -15,-203 -67,-274 -128,-177 -139,-162 -253,342 -27,121 -23,124 139,110 158,-13 168,-22 181,-178 z m 5584,8555 c 87,-409 86,-422 -42,-528 -323,-266 -384,-343 -357,-455 15,-60 39,-158 54,-219 30,-125 -54,-149 -202,-57 -113,71 -170,9 -77,-85 52,-51 182,-81 438,-98 284,-19 418,-53 603,-150 193,-101 282,-122 471,-110 l 233,15 141,-214 c 164,-252 236,-481 198,-633 -21,-85 -274,-497 -356,-581 -9,-9 -100,56 -203,144 -172,147 -259,193 -259,137 0,-13 85,-108 188,-212 103,-104 223,-243 266,-308 116,-173 180,-152 148,49 -25,155 -14,188 127,395 4,6 130,-20 279,-58 389,-99 889,-340 1040,-500 145,-153 259,-170 495,-71 87,36 165,66 174,66 8,0 69,-174 136,-386 67,-212 128,-352 136,-311 14,68 -99,459 -278,961 -39,110 -139,344 -222,522 -123,263 -165,318 -232,297 -51,-17 -112,9 -165,69 -102,114 -327,215 -479,215 -61,0 -178,59 -261,132 -168,148 -205,161 -205,70 0,-85 246,-285 389,-315 239,-51 486,-158 510,-220 13,-35 53,-64 87,-64 36,0 74,-62 90,-145 31,-168 148,-352 202,-318 21,12 8,82 -28,155 -36,72 -59,165 -51,206 7,41 89,-110 182,-336 92,-225 156,-421 143,-434 -14,-14 -25,-11 -25,6 0,17 -58,0 -130,-37 -188,-97 -278,-84 -418,62 -131,137 -698,402 -1050,490 -205,52 -255,98 -166,153 25,15 44,65 44,112 0,101 37,108 156,27 86,-59 677,-294 738,-294 18,0 32,25 32,55 0,31 -154,112 -342,182 -404,150 -506,234 -643,532 -57,123 -156,301 -220,395 -88,128 -117,226 -117,386 0,153 -18,214 -61,214 -74,0 -110,-118 -100,-329 6,-111 -11,-157 -59,-161 -162,-11 -340,19 -447,74 -156,81 -486,194 -568,195 -82,2 -177,196 -177,362 0,94 41,149 173,237 269,178 320,381 184,736 -66,174 -155,158 -117,-22 z m -3831,-469 c -13,-21 53,-90 148,-152 94,-62 228,-199 298,-303 70,-104 147,-189 170,-188 23,0 260,17 525,37 430,33 488,29 537,-38 30,-42 78,-62 105,-45 73,45 -70,188 -214,216 -64,12 -295,8 -514,-9 l -396,-30 -270,275 c -264,269 -340,316 -389,237 z m 1163,-30 c -31,-38 -113,-98 -181,-134 -163,-84 -165,-169 -4,-130 121,30 364,228 364,297 0,61 -118,39 -179,-33 z m 532,-64 c 0,-24 30,-44 66,-44 36,0 143,-69 237,-154 188,-170 226,-185 226,-92 0,34 -83,124 -185,198 -183,135 -344,178 -344,92 z m 3063,-91 c -58,-94 475,-392 702,-393 186,-1 78,109 -168,171 -107,26 -253,98 -325,159 -148,124 -168,130 -209,63 z m -4761,-647 c 59,-145 80,-615 29,-647 -86,-53 -681,-194 -1054,-251 -246,-37 -364,-74 -364,-113 0,-32 20,-59 45,-59 25,0 2,-59 -52,-132 -84,-114 -126,-132 -301,-132 -187,0 -310,-56 -310,-140 0,-18 129,-21 287,-7 281,27 287,25 287,-78 -1,-59 -50,-185 -109,-282 -121,-197 -139,-287 -57,-287 87,0 311,514 285,651 -16,83 12,168 94,283 98,137 151,170 316,192 364,49 682,116 886,187 215,74 261,60 689,-212 53,-34 113,-46 132,-26 40,40 -135,176 -399,310 -147,74 -186,118 -194,225 -26,317 -107,595 -174,595 -47,0 -58,-24 -36,-77 z m -777,-9 c -3,-25 -9,-71 -13,-101 -15,-114 91,-447 148,-466 44,-15 52,11 30,107 -16,70 -41,202 -56,293 -26,158 -97,268 -109,167 z m -588,-263 c -30,-49 143,-357 201,-357 58,0 49,66 -35,241 -75,158 -120,190 -166,116 z m 5687,-626 c -73,-23 -248,-43 -389,-43 -179,-1 -251,-17 -239,-54 13,-35 118,-49 323,-42 168,6 454,15 636,22 302,10 394,41 396,133 1,46 -568,34 -727,-16 z m -4297,-464 c -27,-45 -113,-212 -191,-369 -133,-267 -152,-286 -275,-273 -73,8 -186,40 -251,73 -113,55 -168,48 -168,-23 0,-18 89,-74 197,-124 250,-118 306,-218 246,-436 -60,-215 -86,-250 -248,-333 -146,-75 -265,-196 -229,-232 13,-13 97,21 187,74 l 165,97 -16,-194 c -12,-151 0,-195 51,-195 49,0 69,60 78,228 19,359 155,617 382,724 200,94 412,286 366,332 -15,15 -87,-16 -160,-67 -72,-52 -200,-123 -284,-158 -136,-57 -156,-57 -180,5 -16,43 14,101 79,152 57,46 150,197 206,338 55,140 120,280 144,311 30,39 29,73 -3,105 -34,34 -61,24 -96,-35 z m 1079,-102 c -16,-26 77,-92 212,-152 134,-59 285,-167 342,-243 110,-150 172,-174 172,-68 0,165 -653,581 -726,463 z m -3640,-268 c 0,-25 50,-64 110,-87 80,-31 111,-75 111,-160 0,-153 93,-472 150,-510 90,-61 112,17 48,170 -36,87 -66,225 -66,307 0,90 -35,183 -88,237 -93,92 -265,120 -265,43 z m 3328,-259 c -61,-60 2,-93 178,-93 109,0 199,18 199,39 0,41 -342,90 -377,54 z m -1719,-772 -352,-370 -380,-32 c -506,-41 -610,9 -701,340 -47,168 -242,363 -317,317 -23,-15 7,-79 68,-143 61,-64 124,-191 141,-282 41,-222 224,-351 535,-377 262,-22 287,-53 125,-159 -165,-108 -261,-283 -250,-454 9,-133 -25,-191 -261,-443 -257,-275 -269,-298 -247,-466 46,-344 350,-468 546,-223 56,69 101,141 101,160 1,70 -101,27 -184,-78 -109,-139 -191,-139 -282,0 -104,159 -53,295 225,597 209,227 242,286 242,440 0,148 31,212 184,379 165,178 509,398 554,353 9,-10 28,-129 42,-266 16,-154 45,-242 75,-232 47,17 48,174 3,457 -20,123 11,177 265,463 158,178 287,338 288,356 0,82 -92,8 -420,-337 z m 4257,135 c 0,-33 80,-84 179,-113 227,-68 624,-464 835,-834 85,-149 179,-271 210,-272 97,-2 58,104 -122,330 -236,296 -239,443 -8,374 65,-20 198,-60 295,-88 97,-29 391,-151 653,-271 440,-202 488,-215 629,-169 83,28 174,94 201,146 85,166 227,294 322,293 50,0 229,-90 397,-199 169,-109 326,-192 351,-184 97,33 67,112 -59,156 -73,26 -226,118 -339,204 -324,248 -570,188 -762,-185 -87,-170 -223,-164 -638,28 -211,97 -516,220 -679,272 -163,52 -339,115 -391,139 -64,30 -121,30 -176,-1 -66,-37 -116,-17 -259,100 -360,295 -639,415 -639,274 z m 3484,-70 c 0,-61 130,-180 196,-180 31,0 124,-13 206,-29 134,-27 143,-23 89,43 -32,39 -127,85 -210,100 -82,16 -161,46 -174,68 -32,51 -107,50 -107,-2 z m -3528,-199 c 0,-89 -32,-223 -71,-298 -54,-105 -59,-160 -23,-240 68,-150 155,-134 123,23 -15,77 -1,159 38,209 82,109 82,344 -1,413 -57,48 -66,32 -66,-107 z m 4145,-113 c 0,-24 20,-44 44,-44 24,0 44,20 44,44 0,24 -20,44 -44,44 -24,0 -44,-20 -44,-44 z m 45,-141 c 0,-32 20,-87 43,-124 35,-53 43,-48 44,31 0,53 -19,109 -44,124 -24,15 -43,1 -43,-31 z m -3952,-283 c 16,-143 62,-415 101,-605 85,-408 73,-425 -285,-426 -198,0 -252,19 -370,132 -152,145 -194,145 -148,0 35,-109 268,-264 398,-265 70,0 100,-46 141,-218 60,-254 185,-465 241,-409 22,22 1,122 -50,234 -134,295 -120,378 67,413 86,16 170,63 187,104 25,60 93,75 340,78 256,3 355,28 587,146 292,148 415,150 492,8 23,-44 112,-113 199,-154 137,-65 199,-68 512,-22 228,33 364,74 380,114 35,93 -5,111 -135,62 -64,-25 -243,-57 -398,-73 l -282,-29 -198,182 c -108,100 -227,182 -263,182 -36,0 -193,-62 -348,-138 -155,-75 -312,-150 -348,-165 -36,-15 -175,-18 -309,-6 l -242,22 -34,176 c -18,97 -58,334 -88,526 -34,219 -77,357 -116,370 -49,16 -55,-30 -31,-239 z m -2769,-96 c -12,-20 -3,-64 19,-100 55,-86 52,-317 -5,-468 -26,-68 -36,-184 -21,-257 37,-191 285,-572 338,-519 28,28 -7,123 -100,272 -141,228 -142,233 -88,492 71,345 -31,760 -143,580 z m 5690,-140 c -91,-207 -95,-237 -31,-258 27,-9 79,58 117,148 l 68,165 190,-186 c 166,-163 209,-184 360,-171 222,18 223,98 2,116 -131,11 -208,54 -335,187 -91,96 -194,174 -230,174 -35,0 -99,-79 -141,-175 z m -6078,106 c -4,-23 -9,-200 -11,-393 -4,-479 -55,-481 -673,-30 -222,162 -313,166 -675,29 -143,-54 -282,-69 -496,-55 -307,22 -354,-6 -238,-140 33,-39 103,-219 155,-401 228,-801 288,-970 344,-970 76,0 74,24 -24,287 -103,276 -148,507 -98,507 20,0 49,60 64,133 24,123 351,483 440,484 20,0 72,43 114,96 l 77,95 195,-131 c 107,-71 309,-198 448,-281 l 254,-150 v -235 c 0,-170 18,-241 68,-260 103,-40 112,-6 64,246 -38,205 -33,246 43,343 76,96 84,154 61,447 -15,186 -45,356 -66,379 -24,27 -41,27 -46,0 z m -1578,-718 c -98,-93 -178,-206 -178,-250 0,-127 -59,-35 -113,177 l -49,194 202,16 c 111,9 228,20 259,24 32,5 -23,-68 -121,-161 z m 8711,335 c -10,-31 -30,-224 -46,-430 -52,-695 -98,-958 -172,-981 -22,-6 -98,61 -169,149 -165,203 -209,475 -103,636 41,63 64,126 51,140 -44,44 -154,-81 -203,-232 -73,-219 7,-449 244,-704 165,-177 197,-237 174,-329 -43,-170 -106,-223 -264,-223 -213,0 -323,117 -375,394 -55,296 -132,385 -367,424 -101,17 -209,51 -240,76 -78,63 -127,0 -70,-91 29,-46 117,-80 229,-89 208,-15 316,-128 316,-330 0,-69 22,-166 49,-216 30,-56 32,-101 6,-118 -60,-39 -143,-208 -143,-289 0,-114 63,-79 149,81 l 81,150 156,-65 c 85,-36 203,-53 262,-39 98,25 102,20 53,-72 -29,-54 -88,-129 -131,-167 -43,-37 -120,-233 -171,-434 -100,-396 -218,-674 -358,-842 -84,-101 -98,-104 -321,-54 -189,42 -261,41 -384,-10 -195,-79 -242,-60 -488,195 -137,141 -263,226 -386,258 -275,72 -506,139 -568,164 -30,13 -55,-6 -55,-41 0,-74 137,-134 485,-211 196,-43 283,-95 454,-267 245,-247 370,-292 603,-215 188,62 473,-1 517,-115 30,-80 -184,-361 -346,-453 -69,-39 -146,-134 -172,-211 -79,-238 -160,-268 -600,-219 -132,15 -238,112 -309,281 -63,151 -147,193 -147,75 0,-90 77,-238 188,-359 81,-90 407,-180 551,-152 116,22 41,-86 -340,-489 -334,-353 -435,-432 -651,-511 -346,-126 -339,-127 -378,73 -35,174 -139,311 -194,256 -16,-15 -7,-73 20,-127 27,-55 62,-183 77,-284 28,-182 25,-187 -152,-277 -99,-50 -179,-101 -179,-113 0,-65 156,2 411,178 160,109 316,198 348,198 234,0 1140,906 1394,1395 27,52 146,191 264,309 136,136 251,307 315,469 56,140 138,301 182,358 94,119 234,477 330,847 37,142 105,299 151,349 149,158 268,497 354,1011 94,556 161,1348 115,1348 -17,0 -38,-25 -47,-55 z m -3068,-864 c 0,-71 204,-226 382,-288 145,-52 253,-55 550,-20 397,48 430,59 365,124 -26,26 -152,25 -343,-5 -365,-57 -557,-26 -727,117 -130,109 -227,140 -227,72 z m -602,-570 c -42,-139 -77,-352 -78,-474 -3,-218 -1,-221 195,-318 247,-120 401,-125 535,-16 130,105 77,172 -72,92 -93,-50 -143,-49 -320,5 -255,79 -273,152 -149,601 48,172 75,324 61,338 -62,62 -101,10 -172,-228 z m -6015,-367 c -77,-107 -92,-177 -75,-341 34,-333 162,-714 240,-714 49,0 60,27 40,99 -187,655 -195,757 -71,916 104,132 110,176 25,176 -34,0 -106,-61 -159,-136 z m 7565,-705 c -305,-283 -348,-309 -471,-282 -102,23 -130,16 -115,-30 11,-33 92,-66 179,-73 140,-12 182,11 350,189 104,112 254,244 333,294 l 144,89 206,-136 c 113,-75 234,-136 268,-136 113,0 537,137 565,182 53,86 -24,93 -241,22 -298,-97 -349,-92 -578,60 -109,73 -222,132 -251,133 -29,0 -204,-140 -389,-312 z m -1465,-625 c -107,-137 -133,-337 -96,-736 58,-623 15,-739 -472,-1288 -204,-229 -370,-558 -370,-733 0,-92 10,-101 66,-55 36,30 66,82 66,114 0,133 170,415 474,784 176,214 332,437 347,494 20,82 99,133 363,233 186,71 382,143 437,159 95,29 143,157 59,157 -23,0 -205,-70 -405,-154 -201,-85 -370,-148 -377,-142 -6,7 -36,195 -66,419 -48,362 -46,424 20,562 41,86 74,175 74,198 0,60 -69,53 -120,-12 z m -2587,-464 c -34,-68 -84,-239 -111,-382 -26,-143 -59,-271 -72,-284 -13,-13 -85,-1 -161,28 -75,28 -156,40 -179,25 -27,-16 -31,41 -13,151 17,102 12,189 -13,204 -44,28 -139,-194 -139,-326 0,-41 -120,-188 -265,-327 -236,-225 -329,-378 -230,-378 20,0 113,79 208,177 l 173,176 58,-199 c 37,-127 83,-199 128,-199 52,0 62,26 39,100 -80,261 -97,432 -50,498 46,61 67,61 217,-2 91,-38 178,-103 193,-145 33,-93 192,-274 242,-274 67,0 37,103 -58,205 -90,96 -91,106 -22,252 40,83 73,208 74,277 1,69 31,205 66,302 75,210 78,243 21,243 -23,0 -71,-55 -106,-122 z m -1104,-659 c -108,-57 -163,-59 -353,-14 -344,83 -442,55 -457,-132 -11,-123 23,-203 167,-397 99,-133 199,-248 223,-256 91,-32 34,134 -113,326 -152,199 -193,342 -113,392 22,14 134,-7 248,-45 227,-78 354,-62 506,61 132,107 57,151 -108,65 z m 964,-723 c -16,-26 -151,-103 -300,-170 -300,-135 -449,-272 -410,-375 38,-99 96,-83 154,43 28,61 102,135 166,164 100,45 124,41 176,-34 123,-179 159,-206 208,-158 33,33 25,71 -28,129 -102,113 -93,154 60,267 73,54 122,118 108,141 -35,56 -97,53 -134,-7 z m 3244,-282 c -132,-85 -270,-157 -307,-159 -211,-14 -246,-22 -266,-62 -13,-25 61,-50 170,-58 152,-11 230,12 375,110 100,68 241,144 312,168 71,25 137,70 147,100 35,107 -192,55 -431,-99 z m -3572,-617 c 0,-90 261,-221 321,-161 31,32 9,62 -72,99 -64,29 -117,70 -117,90 0,21 -29,37 -66,37 -36,0 -66,-29 -66,-65 z"/>
    </g>
    <text id="text302" y="-327.99905" x="59.533581" style="font-style:normal;font-weight:normal;font-size:10.58333302px;line-height:1.25;font-family:sans-serif;letter-spacing:0px;word-spacing:0px;fill:#000000;fill-opacity:1;stroke:none;stroke-width:0.26458332" xml:space="preserve" transform="rotate(90)"><tspan style="font-size:7.05555534px;stroke-width:0.26458332" y="-327.99905" x="59.533581" id="tspan300" sodipodi:role="line">2. Das Gehirn von der Seite</tspan></text>
    <rect class="BoundingBox" x="-304.94879" y="55.514034" width="124.22875" height="112.64687" id="rect102" style="fill:none;fill-rule:evenodd;stroke:none;stroke-width:0.25576186;stroke-linejoin:round" transform="scale(-1,1)"/>
    <path d="m 224.05692,165.55997 c 0.22656,-1.42281 0.435,-3.8425 0.435,-5.365 0,-2.22031 0.435,-3.21718 2.12062,-4.82125 2.21125,-2.12062 5.11125,-6.38 4.64,-6.83312 -0.15406,-0.15406 -1.58594,1.44094 -3.20812,3.52531 -2.94532,3.82438 -7.07782,6.39813 -10.25875,6.42531 -0.86094,0.0181 -4.41344,-1.32312 -7.91157,-2.98156 -3.48906,-1.64937 -7.43125,-3.4075 -8.76343,-3.89687 -8.05657,-3.00875 -11.68157,-6.235 -11.69063,-10.44907 0,-2.9725 3.53438,-6.40718 8.27406,-7.99312 2.26563,-0.77031 4.10532,-1.20531 4.10532,-0.95156 0,0.22656 0.41687,-0.16313 0.93343,-0.86094 0.86094,-1.18719 1.14188,-1.20531 3.28063,-0.30813 3.05406,1.28688 12.36125,1.32313 13.91094,0.0272 0.99687,-0.81562 1.49531,-0.71594 3.72468,0.73406 2.85469,1.85782 9.45219,4.69438 10.91125,4.69438 0.51657,0 0.9425,0.32625 0.9425,0.73406 0,1.41375 -3.52531,5.34688 -5.70937,6.36188 -2.80938,1.29593 -11.29188,2.12968 -13.5575,1.32312 -0.95156,-0.32625 -3.72469,-0.41687 -6.18969,-0.19031 -4.06906,0.38969 -4.25031,0.47125 -2.05719,0.92437 3.94219,0.80657 20.75313,0.2175 22.58375,-0.7975 1.99375,-1.12375 2.61907,-0.6525 1.12375,0.84282 -0.60718,0.60718 -0.77031,1.12375 -0.3625,1.12375 0.42594,0 1.03313,-0.69782 1.3775,-1.55875 0.33532,-0.84282 0.78844,-2.01188 1.02407,-2.57375 0.2175,-0.58 0.96968,-1.96657 1.64937,-3.09938 1.12375,-1.84875 1.65844,-2.07531 5.1475,-2.26562 5.30156,-0.28094 4.97531,-1.51344 -0.38969,-1.51344 -4.83031,0 -11.70875,-2.18406 -16.14031,-5.11125 -2.57375,-1.70375 -2.83656,-1.74906 -4.72156,-0.75219 -2.2475,1.16906 -7.48563,1.34125 -11.63625,0.37156 -3.48906,-0.78843 -5.45563,-3.08125 -6.96906,-8.09281 -1.46813,-4.84844 -2.51032,-6.235 -2.20219,-2.92719 0.22656,2.32 0.145,2.41969 -2.02094,2.40157 -2.03,0 -2.13875,0.0906 -1.03312,0.88812 0.67062,0.49844 1.85781,0.74313 2.63718,0.54375 1.18719,-0.29906 1.68563,0.25375 2.91813,3.18094 0.82469,1.94844 1.41375,3.58875 1.34125,3.65219 -2.6825,1.63125 -6.39813,2.72781 -9.36156,2.74593 -3.35313,0 -3.86063,-0.20843 -5.60969,-2.29281 -2.20219,-2.63719 -3.05406,-5.61875 -1.60406,-5.61875 0.5075,0 0.93343,-0.30812 0.93343,-0.67969 0,-0.38062 -0.48031,-0.68875 -1.06031,-0.68875 -1.16906,0 -3.76094,-5.40125 -3.76094,-7.83 0,-0.84281 0.32625,-1.83968 0.71594,-2.2475 0.48938,-0.48031 0.48938,-1.29593 0,-2.58281 -1.06937,-2.8275 -0.85187,-8.31937 0.435,-11.047187 0.64344,-1.34125 1.45906,-2.42875 1.78531,-2.42875 0.33532,0 0.41688,-1.2325 0.17219,-2.745938 -0.67062,-3.887812 1.17813,-9.02625 4.17781,-11.663437 1.32313,-1.150938 2.85469,-2.093437 3.39844,-2.093437 0.56188,0 1.015,-0.543751 1.02406,-1.214376 0,-0.6525 2.12063,-3.507187 4.7125,-6.34375 4.38625,-4.794062 4.89375,-5.129374 7.52188,-5.129374 2.22937,0 2.94531,-0.317188 3.50719,-1.549688 1.04218,-2.292812 6.25312,-4.721563 9.52468,-4.413438 0.47125,0.04531 0.86094,0.996875 0.86094,2.184063 0,1.250625 0.28094,1.92125 0.67969,1.6675 0.38969,-0.235625 0.51656,-0.734063 0.29906,-1.105625 -0.95156,-1.540625 1.82156,-3.942188 6.235,-5.428438 6.00844,-1.993749 7.89344,-1.540624 7.95688,1.92125 0.0272,1.404688 0.30812,3.180938 0.64343,3.933125 0.435,1.005938 0.60719,0.462188 0.63438,-2.13875 0.0363,-2.546562 0.47125,-4.06 1.57687,-5.455625 1.41375,-1.8125 1.43188,-1.903125 0.17219,-1.359375 -0.75219,0.344375 -2.27469,0.561875 -3.41656,0.516563 -3.335,-0.126875 -9.47031,1.241563 -11.77219,2.664375 -1.18719,0.715937 -3.22625,1.305 -4.55844,1.305 -3.08125,0 -6.84218,1.55875 -9.05343,3.779062 -1.00594,0.996876 -2.51032,1.712813 -3.58875,1.712813 -1.45,0 -3.1175,1.295938 -7.33157,5.673125 -3.00875,3.126563 -6.94187,7.222812 -8.76343,9.125937 -4.06907,4.223125 -5.16563,6.425313 -5.73657,11.572813 -0.25375,2.21125 -0.98781,4.993437 -1.62218,6.189687 -0.88813,1.649375 -1.20532,4.114375 -1.27782,10.086565 -0.10875,7.56719 0,8.21062 2.49219,15.0075 2.59188,7.07781 3.71563,8.66375 6.70625,9.47937 0.87,0.25375 1.46813,0.64344 1.34125,0.87 -2.72781,5.01157 -3.32594,7.13219 -2.57375,9.38875 1.12375,3.38938 4.7125,6.0175 12.66031,9.29813 3.82438,1.57687 8.78157,3.78812 11.04719,4.93 4.06906,2.03906 5.32875,2.14781 9.82375,0.83375 1.38656,-0.39875 1.51344,-0.24469 1.2325,1.51344 -0.89719,5.66406 -1.015,7.83 -0.47125,7.83 0.32625,0 0.7975,-1.16907 1.03313,-2.58282 z m 10.06843,-3.52531 c 0,-0.70687 0.51657,-1.72187 1.15094,-2.22937 1.98469,-1.62219 7.09594,-8.95375 7.09594,-10.16813 0,-0.64344 1.42281,-2.52844 3.17187,-4.23219 1.73094,-1.67656 3.42563,-3.78812 3.78813,-4.67625 0.45312,-1.16906 0.96969,-1.47718 1.82156,-1.13281 3.2625,1.27781 8.32844,1.19625 11.27375,-0.17219 1.64031,-0.77937 4.1325,-1.76718 5.51906,-2.20218 4.64907,-1.46813 8.12907,-5.365 8.12907,-9.135 0,-1.98469 1.19625,-3.28063 3.03593,-3.28063 2.29282,0 7.54,-2.22937 8.99907,-3.83344 0.75218,-0.82468 3.13562,-2.01187 5.2925,-2.61906 3.85156,-1.10562 8.12,-4.36812 8.12,-6.22594 0,-0.46218 0.73406,-2.2475 1.62218,-3.92406 2.29282,-4.29562 2.41969,-15.034687 0.25375,-20.182187 -0.7975,-1.903125 -1.85781,-3.6975 -2.35625,-3.996563 -0.49843,-0.308125 -1.32312,-1.567812 -1.83968,-2.800312 -1.42282,-3.389375 -4.89375,-6.987187 -8.28313,-8.582187 -1.64937,-0.779376 -3.65219,-2.301876 -4.43156,-3.398438 -1.6675,-2.338125 -6.0175,-5.47375 -9.16219,-6.579375 -1.26875,-0.453125 -3.82437,-1.730938 -5.7275,-2.854688 -2.98156,-1.77625 -4.15969,-2.075312 -8.93562,-2.165937 -3.37125,-0.08156 -6.55219,-0.561875 -8.20157,-1.259688 -1.93031,-0.83375 -3.67937,-1.033125 -6.18968,-0.734062 -1.92125,0.226563 -4.73063,0.435 -6.235,0.453125 -2.6825,0.0091 -2.71875,0.02719 -1.22344,1.069375 1.2325,0.879062 1.38656,1.332187 0.81562,2.419687 -1.3775,2.546563 -0.20843,2.836563 1.29594,0.32625 1.885,-3.208125 4.63094,-4.02375 9.94156,-2.963437 2.91813,0.58 3.30782,1.422813 1.03313,2.202187 -0.86094,0.280938 -2.16594,0.734063 -2.92719,0.97875 -1.29594,0.435 -1.28687,0.498438 0.29,1.015 1.26875,0.425938 1.90313,0.235625 2.61,-0.734062 0.74313,-1.015 2.03906,-1.323125 6.26219,-1.5225 6.31656,-0.280938 10.295,0.634375 12.41562,2.9 l 1.54063,1.63125 -2.08438,3.280625 c -1.14187,1.803437 -1.885,3.579687 -1.6675,3.942187 0.23563,0.371563 -0.48937,1.404688 -1.55875,2.292813 -1.34125,1.0875 -1.64031,1.622187 -0.92437,1.640312 0.58906,0.0091 1.38656,-0.299062 1.79437,-0.706875 0.38969,-0.389687 2.1025,-1.132812 3.78813,-1.63125 3.86969,-1.169062 5.05687,-0.561875 7.01437,3.625 0.83375,1.767188 1.9575,3.235313 2.51938,3.280625 0.55281,0.02719 1.78531,0.280938 2.73687,0.54375 l 1.72188,0.480313 -1.62219,-1.395625 c -0.90625,-0.779375 -2.04812,-1.422813 -2.54656,-1.422813 -0.49844,0 -1.12375,-0.697812 -1.38656,-1.540624 -0.26282,-0.860938 -1.10563,-2.437813 -1.86688,-3.525313 -1.28687,-1.830625 -1.61312,-1.939375 -4.66719,-1.531563 -1.99375,0.262813 -3.46187,0.154063 -3.72468,-0.262812 -0.25375,-0.389688 0.45312,-2.03 1.54062,-3.634063 2.48313,-3.652187 4.47688,-3.679375 8.98094,-0.172187 3.65219,2.836562 5.61875,5.555312 5.63687,7.748438 0,0.842812 0.30813,1.549687 0.67969,1.549687 0.38063,0 0.68875,-0.625312 0.68875,-1.3775 0,-1.685625 0.26281,-1.694688 2.87281,-0.172187 2.30188,1.341249 7.44938,8.609375 7.44938,10.512499 0,3.199063 -2.2475,4.757813 -2.96344,2.039063 -0.19031,-0.76125 -0.68875,-1.386563 -1.0875,-1.386563 -0.51656,0 -0.51656,0.498438 0.009,1.6675 0.42594,0.924375 0.58,2.437813 0.34438,3.344063 -0.46219,1.885 -4.61281,4.89375 -8.11094,5.90875 -1.25969,0.353438 -1.83969,0.679687 -1.25969,0.715937 3.00875,0.172188 6.12625,-1.576875 10.14094,-5.664062 2.36531,-2.401562 4.30469,-4.812188 4.30469,-5.346875 0,-0.525625 0.61625,-0.02719 1.36844,1.105625 1.93031,2.918125 1.93031,9.9325 0,11.681562 -1.74907,1.595005 -1.79438,2.682505 -0.0634,1.767185 1.45,-0.77937 2.12062,0.18125 2.12062,3.05407 0,1.82156 -3.5525,5.15656 -5.50093,5.15656 -0.725,0 -1.51344,0.3625 -1.78532,0.7975 -0.35343,0.56187 0.12688,0.67062 1.68563,0.3625 1.85781,-0.38063 2.175,-0.23563 2.175,0.95156 0,0.76125 -0.725,2.1025 -1.595,2.9725 -1.98469,1.98469 -8.89031,4.41344 -9.26188,3.28063 -0.435,-1.29594 -1.35937,-0.90625 -1.76718,0.74312 -0.71594,2.85469 -2.21125,4.06906 -6.15344,4.99344 l -3.93313,0.90625 v -2.61 c 0,-1.43188 -0.40781,-2.94531 -0.90625,-3.35313 -0.73406,-0.60718 -0.84281,-0.33531 -0.60718,1.34125 0.19031,1.22344 -0.49844,4.52219 -1.64938,7.98407 -2.03,6.14437 -3.56156,7.87531 -7.83,8.89031 -0.95156,0.2175 -3.27156,1.14187 -5.16562,2.03 -3.35313,1.58594 -3.5525,1.60406 -8.24688,0.60719 -4.72156,-0.99688 -7.81187,-1.27782 -6.0175,-0.56188 2.465,0.99688 -1.55875,6.53406 -6.4525,8.845 -3.915,1.85781 -4.83937,2.83656 -1.96656,2.12063 3.07219,-0.77938 2.05719,2.08437 -2.3925,6.71531 -2.72781,2.85469 -4.05094,4.77594 -3.96938,5.79094 0.13594,1.85781 1.19625,2.05718 1.19625,0.23562 z m 21.315,-25.54719 c 0,-0.37156 -0.24468,-0.67062 -0.56187,-0.67062 -0.30813,0 -1.06938,-1.07844 -1.69469,-2.38344 -1.09656,-2.31094 -1.09656,-2.41969 0.34438,-3.43469 0.82468,-0.56187 1.32312,-1.19625 1.12375,-1.40468 -0.20844,-0.19938 -2.20219,0.75218 -4.43157,2.12062 -4.04187,2.48313 -4.04187,2.50125 -1.49531,2.12063 2.29281,-0.32625 2.69156,-0.15407 3.74281,1.62218 1.19625,2.03 2.9725,3.23532 2.9725,2.03 z m -15.12531,-4.93 c -1.69469,-0.77937 -3.77,-2.02093 -4.59469,-2.77312 -1.29593,-1.18719 -1.87593,-1.27781 -4.1325,-0.68875 l -2.61906,0.70687 2.23844,0.0634 c 1.2325,0.0453 3.99656,0.99688 6.11719,2.12969 2.13875,1.14187 4.36812,2.04812 4.97531,2.01187 0.60719,-0.0272 -0.28094,-0.67968 -1.98469,-1.45 z m -46.41812,-3.85156 c -3.51625,-1.64937 -4.495,-2.88187 -5.5825,-6.8875 l -0.86094,-3.22625 -0.0363,2.755 c 0,1.51344 0.40781,3.50719 0.92437,4.43156 0.51657,0.91532 0.80657,2.01188 0.6525,2.40157 -0.15406,0.40781 0.42594,0.77937 1.27782,0.85187 0.86093,0.0816 2.63718,0.33531 3.96031,0.56188 l 2.40156,0.42593 z m 31.98156,-0.13594 c -0.58,-0.37156 -1.34125,-0.67062 -1.73094,-0.67062 -0.37156,0 -0.2175,0.29906 0.34438,0.67062 0.57093,0.35344 1.34125,0.6525 1.73093,0.6525 0.37157,0 0.2175,-0.29906 -0.34437,-0.6525 z m 43.83531,-0.67062 c 2.16594,-0.51656 4.58563,-2.03 4.08719,-2.54656 -0.145,-0.13594 -1.38656,0.2175 -2.76406,0.7975 -1.35938,0.56187 -3.44375,1.03312 -4.61282,1.03312 -1.2325,0 -1.94843,0.29 -1.70375,0.69781 0.48938,0.76125 1.76719,0.77938 4.99344,0.0181 z m -11.02906,-3.63406 c -0.88813,-1.2325 -1.51344,-2.85469 -1.36844,-3.61594 0.24469,-1.29594 0.19938,-1.29594 -0.98781,0.11781 -0.67063,0.83375 -2.32,1.98469 -3.625,2.59188 l -2.41969,1.09656 2.94531,-0.3625 c 2.32,-0.29906 3.24438,-0.0816 4.43157,1.015 2.27468,2.13875 2.85468,1.64937 1.02406,-0.84281 z m -38.65156,1.54062 c -1.92125,-0.82469 -5.70032,-0.82469 -6.19875,0 -0.26282,0.435 1.06031,0.67063 3.57062,0.64344 2.87281,-0.0362 3.60688,-0.2175 2.62813,-0.64344 z m -10.96563,-0.60719 c -0.6525,-1.07843 -5.21094,-3.50718 -5.21094,-2.79125 0,0.37157 1.015,1.27782 2.2475,2.03 2.38344,1.46813 3.58875,1.75813 2.96344,0.76125 z m 31.04813,-4.61281 c -1.21438,-0.6525 -2.07532,-1.8125 -2.33813,-3.17187 -0.38062,-1.84875 -0.53469,-1.97563 -1.25062,-0.99688 -0.45313,0.60719 -1.47719,1.22344 -2.27469,1.34125 -2.60094,0.38969 -2.49219,1.16906 0.17219,1.16906 1.54062,0 3.28968,0.56188 4.31375,1.3775 0.96968,0.76125 2.11156,1.36844 2.52843,1.35938 0.42594,-0.0181 -0.0906,-0.5075 -1.15093,-1.07844 z m 43.77187,-4.38625 c -1.015,-2.03906 -1.04219,-2.03906 -2.85469,-0.87 l -1.82156,1.19625 1.86688,0.2175 c 1.03312,0.11781 1.87593,0.5075 1.87593,0.86094 0,0.3625 0.435,0.64344 0.97875,0.64344 0.84282,0 0.82469,-0.29907 -0.0453,-2.04813 z m -64.69719,0.31719 c 1.41375,-0.53469 3.13563,-0.7975 3.77,-0.60719 0.68875,0.19938 0.45313,-0.17219 -0.52562,-0.87906 -0.95156,-0.68875 -2.73688,-2.30188 -3.96938,-3.61594 -1.39562,-1.49531 -2.22937,-1.99375 -2.22937,-1.32312 0,0.56187 0.77937,1.75812 1.72187,2.64625 0.95157,0.88812 1.73094,1.83968 1.73094,2.11156 0,0.28094 -0.77937,0.69781 -1.73094,0.93344 -0.9425,0.23562 -1.72187,0.73406 -1.72187,1.10562 0,0.3625 0.0816,0.6525 0.17219,0.62531 0.0997,-0.0363 1.34125,-0.48937 2.78218,-0.99687 z m 54.91875,-1.44094 -1.57687,-1.10562 1.44094,-1.32313 c 2.02093,-1.885 1.79437,-2.01187 -1.33219,-0.71594 -1.51344,0.63438 -2.73688,1.38657 -2.73688,1.64938 -0.0181,0.62531 3.72469,2.61 4.91188,2.61 0.48031,0 0.16312,-0.5075 -0.70688,-1.11469 z m -75.50875,-2.16594 c 0.23563,-1.41375 1.20532,-3.41656 2.13875,-4.43156 0.95157,-1.00594 1.45,-2.02094 1.10563,-2.23844 -0.34438,-0.20843 -1.2325,0.38969 -1.97563,1.34125 -0.75218,0.95157 -1.62218,1.73094 -1.94843,1.73094 -0.33532,0 -0.64344,1.38656 -0.70688,3.08125 -0.15406,3.76094 0.81563,4.10531 1.38656,0.51656 z m 66.59125,-1.58593 c -0.88812,-0.34438 -1.48625,-0.87907 -1.32312,-1.16 0.15406,-0.28094 0.71594,-1.5225 1.2325,-2.755 0.52562,-1.21438 1.305,-2.22938 1.74,-2.22938 0.86094,0 3.045,-2.20219 3.045,-3.09031 0,-0.30813 -0.59813,-0.0181 -1.32313,0.64344 -1.40468,1.27781 -2.79125,0.9425 -2.79125,-0.64344 0,-0.53469 -0.3625,-1.169065 -0.7975,-1.450002 -0.58,-0.344375 -0.67062,0.154062 -0.34437,1.794372 0.56187,2.80938 -0.76125,6.71532 -2.44688,7.26813 -2.61,0.82469 -0.73406,2.40156 2.77313,2.30187 1.82156,-0.0272 1.82156,-0.0453 0.23562,-0.67968 z m -10.04125,-2.99969 c -0.75218,-0.58906 -1.57687,-1.0875 -1.85781,-1.0875 -1.16906,0 -0.92437,-4.5675 0.3625,-6.796877 0.97875,-1.730938 1.06938,-2.2475 0.35344,-2.011875 -1.45,0.480312 -2.66438,3.316872 -2.6825,6.235002 0,1.77625 -0.30813,2.57375 -0.99688,2.57375 -0.53468,0 -2.85468,-1.16 -5.1475,-2.57375 -3.61593,-2.2475 -4.15968,-2.85469 -4.17781,-4.676252 0,-1.169063 -0.62531,-3.398438 -1.36844,-4.96625 -1.74906,-3.597813 -1.73093,-5.310625 0.0544,-9.660625 l 1.46812,-3.48 -2.30187,-7.095937 c -1.26875,-3.896876 -2.40156,-6.534063 -2.52844,-5.863438 -0.145,0.670625 0.57094,3.815313 1.58594,7.005312 l 1.83969,5.781875 -1.43188,4.177813 c -1.83969,5.283437 -1.82156,5.664063 0.37156,10.15 1.07844,2.184062 1.55875,3.960312 1.20532,4.340938 -0.34438,0.326249 -4.36813,0.652504 -8.95375,0.715934 -6.8875,0.0906 -8.65469,-0.0906 -10.16813,-1.09656 -2.36531,-1.540625 -3.31687,-0.61625 -1.16906,1.14188 1.49531,1.19625 2.37437,1.29593 9.29812,0.88812 6.73344,-0.38969 8.05657,-0.26281 11.40969,1.015 2.07531,0.77938 4.86656,2.36531 6.18969,3.50719 1.72187,1.48625 3.12656,2.05719 4.93,2.07531 1.38656,0 3.09031,0.17219 3.77906,0.38969 1.15094,0.37156 1.15094,0.30812 -0.0634,-0.68875 z m 33.96625,-1.04219 c 1.06032,-1.94844 0.87,-2.79125 -0.58,-2.79125 -0.70687,0 -1.6675,-0.47125 -2.13875,-1.03312 -1.12375,-1.34125 -2.07531,-1.27782 -3.96031,0.29906 -2.1025,1.76719 -1.94844,2.37437 0.30813,1.18719 2.74593,-1.45 5.85437,-0.25375 5.2925,2.03 -0.49844,1.97562 0.0906,2.16593 1.07843,0.30812 z m -101.79,-3.30781 c 0.0181,-2.16594 -0.24468,-2.92719 -1.015,-2.92719 -0.78843,0 -0.93343,0.46219 -0.58906,1.90313 0.86094,3.61593 1.58594,4.07812 1.60406,1.02406 z m 105.995,1.2325 c 0.98782,-0.29906 2.57375,-1.06031 3.54344,-1.69469 1.96656,-1.28687 5.75469,-6.398125 5.17469,-6.987187 -0.19938,-0.208438 -1.25063,0.87 -2.33813,2.383437 -1.77625,2.49219 -6.42531,5.5825 -8.39187,5.5825 -0.435,0 -0.7975,0.30813 -0.7975,0.68875 0,0.77938 0.33531,0.77938 2.80937,0.0272 z m -97.38562,-0.54375 c -2.63719,-6.207815 -2.93625,-8.500627 -1.31406,-9.841877 0.77937,-0.6525 0.96968,-1.540625 0.66156,-3.199063 -0.92438,-4.939062 4.28656,-8.219687 8.43719,-5.310624 1.90312,1.341249 3.57968,5.201874 3.57968,8.292187 0,1.277812 0.29907,2.32 0.67063,2.32 0.3625,0 0.49844,-0.435 0.29906,-0.960625 -0.54375,-1.386563 0.82469,-1.984688 2.51031,-1.078438 2.2475,1.196251 2.37438,0.262813 0.15407,-1.042187 -1.0875,-0.643438 -2.81844,-2.809375 -3.86063,-4.794062 -1.79437,-3.4075 -3.97844,-5.192813 -6.35281,-5.192813 -0.56188,0 -1.305,-0.779375 -1.6675,-1.712813 -0.84281,-2.21125 -1.64031,-2.229375 -1.21438,-0.02719 0.23563,1.214375 -0.2175,2.193125 -1.64031,3.5525 -1.54062,1.477187 -1.96656,2.492187 -1.96656,4.7125 0,3.054062 -0.91531,4.485937 -2.88188,4.485937 -0.68875,0 -1.25062,0.299063 -1.25062,0.68875 0,0.371563 0.47125,0.68875 1.03312,0.68875 0.58,0 1.04219,0.525625 1.04219,1.196251 0,1.431874 3.18094,8.419067 3.82438,8.419067 0.24468,0 0.2175,-0.54375 -0.0634,-1.19625 z m 83.58344,-5.337815 c 0.47125,-0.561875 1.83062,-1.060312 2.99968,-1.0875 l 2.14782,-0.06344 -2.03907,-0.607188 c -1.12375,-0.32625 -2.59187,-1.314062 -3.24437,-2.165937 -0.98781,-1.277813 -1.21438,-1.359375 -1.2325,-0.407813 0,0.643438 0.30812,1.359375 0.71594,1.604063 0.48031,0.299062 0.3625,1.015 -0.3625,2.111562 -1.17813,1.803438 -0.37157,2.301878 1.015,0.61625 z M 254.8966,92.063098 c 1.99375,-3.217188 1.98469,-3.498125 -0.12687,-2.175 -1.15094,0.725 -1.63125,0.552812 -3.42563,-1.169062 -1.60406,-1.522501 -2.09343,-1.730938 -2.09343,-0.851876 0,0.634376 0.86093,1.685625 1.885,2.338125 1.05125,0.634375 2.00281,1.250626 2.12062,1.323125 0.12688,0.08156 -0.10875,0.779375 -0.5075,1.540625 -1.49531,2.800313 0.34438,1.939375 2.14781,-1.005937 z m -28.17531,2.492187 c 0.23563,-0.58 0.60719,-2.165937 0.84281,-3.543437 0.2175,-1.386562 1.015,-3.289688 1.75813,-4.24125 1.83969,-2.338125 1.71281,-3.896875 -0.6525,-8.165313 l -2.01188,-3.652187 1.45,-2.591875 c 0.7975,-1.41375 1.71282,-2.57375 2.01188,-2.57375 0.30812,0 0.56187,-0.308125 0.56187,-0.679688 0,-1.504375 -1.38656,-0.552812 -3.50718,2.401563 -1.22344,1.694687 -2.71875,3.099375 -3.30782,3.099375 -0.64343,0.01812 -0.19031,0.598125 1.10563,1.422813 1.20531,0.779374 2.81844,2.727812 3.60687,4.331874 l 1.41375,2.918126 -1.885,3.570624 c -1.04218,1.966563 -2.43781,3.742813 -3.10843,3.960313 -0.67063,0.2175 -1.02407,0.68875 -0.80657,1.042187 0.2175,0.3625 0.67063,0.489376 0.99688,0.280938 0.31719,-0.199375 0.70687,0.498437 0.84281,1.549687 0.17219,1.259688 0.40781,1.55875 0.68875,0.87 z m 43.92594,-5.845312 c 0.23562,-0.380625 0.32625,-1.767188 0.23562,-3.072188 -0.12687,-1.549687 0.30813,-3.090312 1.19625,-4.340937 0.77032,-1.069375 1.18719,-2.165938 0.92438,-2.42875 -0.25375,-0.25375 -0.76125,0.04531 -1.12375,0.68875 -1.29594,2.301875 -4.19594,5.365 -5.11125,5.365 -0.49844,0 -1.14188,0.353437 -1.40469,0.779375 -0.34437,0.561875 0.2175,0.6525 1.96656,0.32625 2.30188,-0.435 2.47407,-0.344375 2.6825,1.45 0.11782,1.060312 0.39875,1.604062 0.63438,1.2325 z m -17.545,-4.295625 c 0.66156,-1.024063 1.015,-1.069375 2.74594,-0.32625 l 1.99375,0.860937 -1.885,-1.449999 c -1.04219,-0.797501 -1.885,-1.885001 -1.885,-2.419688 0,-1.975625 -1.12375,-0.888125 -1.82157,1.77625 -0.77937,2.890937 -0.40781,3.561562 0.85188,1.55875 z M 219.5166,84.74966 c -0.145,-0.47125 -1.72187,-1.939375 -3.49812,-3.262499 -2.41063,-1.8125 -3.20813,-2.872813 -3.20813,-4.223126 0,-1.05125 -0.48937,-2.011875 -1.10562,-2.2475 -0.83375,-0.317187 -1.03313,-1.078437 -0.7975,-2.999687 0.15406,-1.41375 0.52562,-3.1175 0.82469,-3.77 0.32625,-0.734063 0.23562,-1.19625 -0.2175,-1.19625 -0.40782,0 -0.93344,0.76125 -1.18719,1.712813 -0.23563,0.933437 -0.7975,1.712812 -1.24156,1.712812 -0.45313,0 -1.42282,0.435 -2.15688,0.969687 -1.25062,0.90625 -1.21437,0.951563 0.48031,0.625313 1.57688,-0.299063 1.87594,-0.08156 2.28375,1.77625 0.26282,1.169062 0.74313,2.292812 1.10563,2.510312 0.76125,0.462188 0.86094,3.054063 0.10875,3.054063 -0.29906,0 -1.68563,-0.607188 -3.10844,-1.368438 -1.39562,-0.752187 -2.56469,-1.078437 -2.56469,-0.706875 0,0.924375 4.03282,2.93625 6.47063,3.217188 2.07531,0.244688 6.5975,3.253437 6.5975,4.395312 0,0.362501 0.33531,0.6525 0.74312,0.6525 0.40782,0 0.62532,-0.371562 0.47125,-0.851875 z m 63.4375,-2.918125 c 0,-0.951562 -0.31718,-1.730937 -0.68875,-1.730937 -0.37156,0 -0.68875,0.779375 -0.68875,1.730937 0,0.933438 0.31719,1.712813 0.68875,1.712813 0.37157,0 0.68875,-0.779375 0.68875,-1.712813 z m -19.43,-4.322812 c 0.85188,-0.135938 1.54063,-0.561875 1.54063,-0.951563 0,-0.407812 -0.84281,-0.498437 -2.1025,-0.2175 -1.64031,0.362501 -2.6825,0.04531 -4.80313,-1.41375 -1.48625,-1.033125 -2.54656,-2.111562 -2.33812,-2.419687 0.18125,-0.317187 0.0272,-0.752188 -0.32625,-0.969688 -0.38063,-0.2175 -1.00594,0.199376 -1.39563,0.933438 -0.91531,1.730938 -0.91531,2.338125 0.0181,1.767188 0.38969,-0.25375 1.25062,-0.01812 1.885,0.498437 1.03312,0.842813 4.69437,2.79125 5.63687,2.963437 0.18125,0.04531 1.04219,-0.04531 1.885,-0.190312 z m -40.31,-6.688125 c -1.07843,-2.202188 -2.79125,-4.195938 -2.8275,-3.307813 -0.0181,0.453125 0.77938,1.685625 1.74907,2.764063 1.15093,1.259687 1.5225,1.45 1.07843,0.54375 z m 40.24657,-2.764063 c 0.2175,-0.570937 1.68562,-1.649375 3.24437,-2.383437 1.57688,-0.743125 2.27469,-1.34125 1.58594,-1.359375 -0.67969,-0.0091 -1.885,0.317187 -2.64625,0.725 -1.015,0.54375 -1.60406,0.54375 -2.15688,0 -0.41687,-0.407813 -1.19625,-0.752188 -1.73093,-0.752188 -0.84282,0 -0.84282,0.172188 -0.0272,1.141875 0.51656,0.616251 0.84281,1.712813 0.71594,2.401563 -0.25375,1.540625 0.45312,1.694687 1.015,0.226562 z" id="path104" inkscape:connector-curvature="0" style="fill:#373737;fill-rule:evenodd;stroke:none;stroke-width:0.25576186;stroke-linejoin:round"/>
  </g>
</svg>