<?xml version="1.0" encoding="UTF-8" standalone="no"?>
<!-- Created with Inkscape (http://www.inkscape.org/) -->

<svg
   xmlns:dc="http://purl.org/dc/elements/1.1/"
   xmlns:cc="http://creativecommons.org/ns#"
   xmlns:rdf="http://www.w3.org/1999/02/22-rdf-syntax-ns#"
   xmlns:svg="http://www.w3.org/2000/svg"
   xmlns="http://www.w3.org/2000/svg"
   xmlns:xlink="http://www.w3.org/1999/xlink"
   xmlns:sodipodi="http://sodipodi.sourceforge.net/DTD/sodipodi-0.dtd"
   xmlns:inkscape="http://www.inkscape.org/namespaces/inkscape"
   width="210mm"
   height="297mm"
   viewBox="0 0 210 297"
   version="1.1"
   id="svg184"
   inkscape:version="0.92.1 r15371"
   sodipodi:docname="InkLogo.svg">
  <defs
     id="defs178">
    <inkscape:perspective
       sodipodi:type="inkscape:persp3d"
       inkscape:vp_x="8.3403938 : 46.747191 : 1"
       inkscape:vp_y="0 : 1000 : 0"
       inkscape:vp_z="210 : 148.5 : 1"
       inkscape:persp3d-origin="105 : 99 : 1"
       id="perspective256" />
    <linearGradient
       inkscape:collect="always"
       id="linearGradient236">
      <stop
         style="stop-color:#0055d4;stop-opacity:1;"
         offset="0"
         id="stop232" />
      <stop
         style="stop-color:#0055d4;stop-opacity:0;"
         offset="1"
         id="stop234" />
    </linearGradient>
    <linearGradient
       inkscape:collect="always"
       xlink:href="#linearGradient236"
       id="linearGradient238"
       x1="1097.5958"
       y1="153.54523"
       x2="1084.2512"
       y2="145.20483"
       gradientUnits="userSpaceOnUse"
       gradientTransform="translate(515.43635,-23.353103)" />
  </defs>
  <sodipodi:namedview
     id="base"
     pagecolor="#ffffff"
     bordercolor="#666666"
     borderopacity="1.0"
     inkscape:pageopacity="0.0"
     inkscape:pageshadow="2"
     inkscape:zoom="0.54115914"
     inkscape:cx="596.03809"
     inkscape:cy="576.20947"
     inkscape:document-units="mm"
     inkscape:current-layer="layer1"
     showgrid="false"
     inkscape:window-width="1280"
     inkscape:window-height="927"
     inkscape:window-x="0"
     inkscape:window-y="27"
     inkscape:window-maximized="1" />
  <metadata
     id="metadata181">
    <rdf:RDF>
      <cc:Work
         rdf:about="">
        <dc:format>image/svg+xml</dc:format>
        <dc:type
           rdf:resource="http://purl.org/dc/dcmitype/StillImage" />
        <dc:title></dc:title>
      </cc:Work>
    </rdf:RDF>
  </metadata>
  <g
     inkscape:label="Ebene 1"
     inkscape:groupmode="layer"
     id="layer1">
    <path
       style="fill:#0055d4;stroke-width:0.26458332"
       d="m 107.74219,75.023438 c -1.15307,0.01188 -2.33246,0.48026 -3.00871,1.448443 -1.09006,1.498383 -1.33477,3.410886 -1.47235,5.210205 -0.19524,3.298172 0.13288,6.603025 0.56443,9.870565 0.36674,2.72887 0.85172,5.439828 1.32092,8.152427 2.25868,-6.29823 4.70227,-12.599879 5.73853,-19.242797 0.18828,-1.527098 0.30918,-3.198163 -0.44751,-4.597047 -0.44666,-0.636965 -1.24593,-0.932351 -2.00386,-0.83781 -0.23037,-0.01312 -0.46092,-0.01227 -0.69145,-0.004 z m -2.59571,24.68164 c -5.559429,14.890452 -11.950933,29.474622 -16.8653,44.601962 -1.406741,4.42139 -2.69489,8.93922 -2.983718,13.5919 -0.04829,1.51454 0.08901,3.18007 1.08535,4.39794 0.65983,0.69167 1.738417,0.84483 2.597944,0.4618 2.025893,-0.60829 3.731127,-1.91517 5.470859,-3.06871 4.35207,-3.08165 8.321175,-6.65665 12.321475,-10.17141 2.15991,-1.93095 4.2898,-3.89512 6.42027,-5.8584 -1.30698,-12.74193 -4.34275,-25.20987 -6.83128,-37.75119 -0.41537,-2.06594 -0.82125,-4.13383 -1.2156,-6.203892 z m 8.04688,43.955082 c 0.34891,3.99652 0.53869,8.03985 -0.0156,12.02734 5.08758,-0.87644 10.20188,-1.58802 15.32227,-2.24219 10.67766,-11.39052 21.43764,-22.75541 30.95295,-35.1558 3.12795,-4.1376 6.11679,-8.44184 8.21717,-13.20508 0.76978,-1.87598 1.38083,-3.96662 0.91569,-5.996022 -0.20219,-0.808423 -0.86506,-1.63016 -1.77722,-1.549346 -1.29019,0.04198 -2.40742,0.783327 -3.5263,1.345076 -3.17085,1.804642 -5.954,4.187992 -8.78451,6.468452 -6.91562,5.7521 -13.41317,11.9798 -19.97367,18.12718 -7.11018,6.72686 -14.17449,13.50233 -21.33075,20.18039 z M 128.5,153.44531 c -3.93127,4.1523 -7.85835,8.30855 -11.78125,12.46875 7.35494,1.08722 14.71327,2.16201 22.0332,3.46875 12.2344,-7.25493 24.33116,-14.75454 36.83985,-21.53515 -0.65721,-0.0201 -1.30226,0.17244 -1.95725,0.22223 -15.01276,2.05376 -30.10252,3.47805 -45.13455,5.37542 z m 10.25195,15.9375 c -3.03638,1.79452 -6.07073,3.59257 -9.12109,5.36328 8.55136,3.26737 20.61126,35.12524 19.62145,2.71662 10.28654,4.15487 26.10317,16.53824 36.10567,21.31504 1.82148,0.85827 3.64874,1.7042 5.47405,2.55428 0.12154,-5.30172 -2.25028,-10.50288 -6.03635,-14.16318 -3.97251,-4.00484 -9.02909,-6.70304 -14.1598,-8.92326 -7.93427,-3.36084 -16.28519,-5.62074 -24.6898,-7.4523 -2.39076,-0.50657 -4.79114,-0.96597 -7.19413,-1.41048 z m -9.12109,5.36328 c -3.44866,-1.1736 -6.88415,-2.60384 -10.55469,-2.8789 -0.48462,-0.0189 -1.11585,0.37936 -0.89477,0.92934 0.26333,0.87024 1.01133,1.46222 1.57104,2.14068 1.12394,1.16903 2.38472,2.19326 3.61475,3.24638 0.72236,-0.10218 1.24762,-0.67668 1.90545,-0.94586 1.4549,-0.82677 2.90726,-1.65797 4.35822,-2.49164 z m -12.91211,-8.83203 c -3.02585,-0.46028 -6.05467,-0.90676 -9.06445,-1.46484 -2.0015,2.05904 -4.80972,2.9689 -7.45677,3.87755 -6.597824,2.11914 -13.44823,3.26804 -20.247058,4.52828 -3.797894,0.67422 -7.600349,1.32231 -11.401644,1.97698 7.941956,8.4556 15.978581,16.82199 24.089844,25.11524 9.261118,-1.02773 18.557758,-2.18812 27.894788,-1.88339 2.75194,0.13453 5.58383,0.41076 8.10398,1.60419 2.736,1.51281 4.27017,4.74137 4.03601,7.81774 -0.13879,3.34185 -1.46905,6.48059 -2.91173,9.44778 0.58588,0.41709 1.34147,0.44547 1.98714,0.73555 11.29424,3.62259 24.36838,-3.39732 35.39225,11.90035 12.51167,6.95105 19.61682,-27.89166 23.69092,-28.23746 -24.70575,8.51323 -52.34628,-33.57794 -29.57907,-38.25608 0.53276,-0.91791 30.0037,75.82906 29.51219,75.01391 -1.01215,-1.66589 -11.34499,-16.84749 -12.70589,-18.22731 -3.87965,-3.76908 -8.29709,-6.91938 -12.67955,-10.06761 -5.34832,-3.7977 -14.4743,-4.17425 -19.66316,-8.19041 -7.12782,-5.43201 -7.24679,-13.80935 -14.44651,-19.14693 -1.56805,-1.18607 -6.28192,-2.95962 -7.8091,-4.19783 -5.96898,3.24336 -11.9167,6.65339 -18.40072,8.77633 -1.4041,0.4041 -2.94727,0.78835 -4.37663,0.29593 -0.61295,-0.30325 -0.849624,-1.12465 -0.4826,-1.70435 0.58354,-1.49573 1.64112,-2.73517 2.56707,-4.02606 2.8883,-3.73549 6.12018,-7.18555 9.28887,-10.68072 1.5443,-1.6779 3.10616,-3.3395 4.66182,-5.00684 z m -24.080078,34.03321 c -12.045825,1.42992 -24.064665,3.1139 -36.150391,4.18554 11.268287,3.52118 22.459266,7.40142 34.032522,9.82657 3.412918,0.6787 6.927564,1.23374 10.406227,0.77235 1.29311,-0.21785 2.71378,-0.86497 3.16321,-2.19729 0.18176,-0.41415 0.20054,-0.9803 -0.23277,-1.24551 -3.7605,-3.75985 -7.493235,-7.54724 -11.218798,-11.34166 z m -36.150391,4.18554 c -7.528818,-2.31195 -15.020125,-4.88699 -22.809956,-6.1868 -1.592031,-0.21471 -3.283489,-0.38559 -4.817885,0.19611 -0.717673,0.39312 -0.92759,1.35298 -0.585561,2.06594 0.552791,1.65291 2.184033,2.62554 3.749707,3.16133 2.945305,1.05325 6.106566,1.2165 9.202925,1.36213 5.09429,0.15995 10.184964,-0.20843 15.26077,-0.59871 z m 12.060547,-29.30078 c -6.929051,-7.43267 -13.809517,-14.91458 -20.427734,-22.62695 -1.964131,10.02933 -5.768215,19.56269 -9.614052,28.99021 -0.397903,0.99811 -0.802406,1.99495 -1.133995,3.0176 0.350114,0.11771 0.413637,-0.39473 0.652266,-0.54681 1.601453,-1.80015 3.953023,-2.60549 6.144051,-3.43168 5.151716,-1.80456 10.532766,-2.8105 15.873705,-3.87175 2.830307,-0.53722 5.668543,-1.03153 8.505759,-1.53062 z M 48.121094,152.20508 c 0.766537,-4.30871 1.305041,-8.79738 0.253906,-13.10742 -0.63728,-2.49846 -2.206181,-4.92611 -4.649172,-5.96065 -2.633836,-1.17573 -5.624322,-1.014 -8.399656,-0.52178 -0.403251,-0.0811 -0.523116,0.40794 -0.435743,0.70945 0.08274,1.38318 0.94823,2.53428 1.573863,3.71877 2.239123,3.74052 5.042183,7.09622 7.75309,10.49628 1.285553,1.56809 2.593511,3.11784 3.903712,4.66535 z m 59.533206,12.24414 c 2.373,-0.80225 3.98066,-3.01644 4.71243,-5.33109 0.38117,-1.11396 0.62865,-2.26886 0.811,-3.43063 -4.36246,0.84324 -8.8393,1.52983 -12.8792,3.47522 -0.71239,0.38842 -1.540236,0.97113 -1.558157,1.86546 0.155765,0.93386 1.163328,1.28967 1.917377,1.63611 2.23661,0.91766 4.64363,1.2911 6.99655,1.78493 z m 84.22461,-23.31445 c -3.7312,0.43489 -7.11322,2.19007 -10.48018,3.73557 -1.92465,0.9255 -3.81396,1.92204 -5.70342,2.91677 5.45983,-0.87594 11.00833,-1.56693 16.22936,-3.47446 0.83697,-0.36552 1.82955,-0.79302 2.16824,-1.70871 0.11912,-0.84837 -0.77529,-1.42583 -1.53432,-1.44769 -0.22576,-0.0262 -0.45277,-0.0247 -0.67968,-0.0215 z m -74.97071,72.6875 c -0.89675,0.11307 -1.56851,0.90749 -1.90249,1.7045 -0.59105,1.43291 -0.25174,3.03667 0.15454,4.4718 1.18755,3.63165 3.13553,6.94407 4.93502,10.29482 0.1616,0.29739 0.32321,0.59477 0.48481,0.89216 3.30252,-4.5499 6.57274,-9.15661 9.14453,-14.16993 -4.18664,-1.25511 -8.34773,-2.78488 -12.72759,-3.19429 l -0.0484,5.1e-4 z m 3.67188,17.36328 c -3.97764,5.5228 -8.35407,10.79883 -11.63884,16.78555 -0.82436,1.60053 -1.60403,3.3811 -1.36238,5.22164 0.24739,1.1294 1.27024,1.9471 2.38028,2.14698 2.0683,0.56964 4.23209,0.21867 6.32682,0.0179 2.77108,-0.37526 5.62864,-1.11251 7.82827,-2.92462 1.6124,-1.38551 2.4818,-3.53346 2.38186,-5.64796 -0.0289,-3.08955 -1.22799,-6.00398 -2.43541,-8.79609 -1.05047,-2.32209 -2.2806,-4.55672 -3.4806,-6.8034 z"
       id="path186"
       inkscape:connector-curvature="0"
       sodipodi:nodetypes="ccccccccccccccccccccccccccccccccccccccccccccccccccccccccccccccccccccccccccccccccccccccccccccccccccccccccccccccccccccccccccccccccccccccccccccccc" />
    <path
       style="fill:#0055d4;stroke-width:0.26458332"
       d="m -105.19017,83.350148 c -7.72795,1.048162 -19.26305,-11.171066 -24.80043,-5.8199 -5.64994,5.284439 -29.24827,-5.651422 -24.44801,7.578326 110.291227,128.181296 -13.21779,7.489718 -21.67361,11.236688 -8.00137,-3.294896 -25.4616,10.285928 -23.3451,24.194258 2.52759,19.25139 88.32023,-17.08476 88.85959,-9.01983 -0.81804,12.28946 -91.87822,57.90979 -91.46253,70.16757 26.1117,25.75543 4.61193,-75.0897 26.9348,-74.38524 3.38901,9.40162 -14.15432,119.67051 -7.44774,127.0557 23.05011,-33.97539 76.8122,-88.88497 23.00584,9.81617 4.77918,3.21829 -5.65249,0.49838 0,0 7.33086,-0.30098 152.5500456,-199.336335 21.99084,1.18831 7.14803,1.87306 83.509289,-57.48353 89.152039,-52.80581 4.27294,3.43217 -61.323009,70.42372 -55.951529,71.95368 4.827658,1.36842 9.968188,0.69403 14.742423,-0.56372 6.07817,-1.65301 11.748678,-4.73921 16.37478,-9.01421 6.469263,-5.8378 -75.916783,-66.67896 -69.710403,-72.77514 5.15389,-5.23761 98.140327,43.61414 103.688915,38.80859 5.2094,-4.71265 10.038706,-10.13793 12.593114,-16.78321 3.375799,-8.60854 5.297908,-17.8068 5.521,-27.05493 -0.01406,-7.87 -82.887679,-74.84663 -86.491709,-81.820534 -4.01586,-8.46557 72.315476,42.411564 69.299011,33.513934 -2.625613,-7.36542 -4.403115,-15.02499 -7.446436,-22.24129 -2.472473,-5.83647 -69.532575,67.69366 -73.884065,63.06422 -9.32231,-10.29541 41.909963,-96.538396 28.583627,-100.267004 -6.068034,-1.646711 -7.794985,13.926504 -14.084417,13.973372 z"
       id="path189"
       inkscape:connector-curvature="0"
       sodipodi:nodetypes="cccccccccccccccccccccccccc" />
    <path
       style="fill:#0055d4;stroke-width:0.26458332"
       d="m -22.961463,414.64024 c -25.945946,1.03696 38.714381,125.10327 12.680153,125.42599 -61.055775,12.99926 -91.75755,-141.82738 -108.58948,-137.96901 -8.90934,2.26451 7.98622,169.41609 -0.2249,173.49788 -23.93592,12.26977 -69.89248,-133.06048 -87.04884,-112.48744 -10.36733,12.8511 -18.20017,28.45144 -19.02542,45.17737 -0.91886,15.10133 165.083518,-70.48465 173.754348,-58.17074 11.56038,17.26322 -133.016858,131.07877 -115.896708,142.48136 25.40976,16.52836 54.35898,27.05399 83.987293,32.98857 30.504295,6.99326 62.010895,11.23549 93.3159913,8.27926 C 39.90188,631.65394 70.196161,629.41078 98.947899,620.276 126.1947,611.69365 173.75139,456.80592 196.37879,439.32397 c 15.82408,-12.56945 8.09005,113.21508 14.65752,93.82668 5.49568,-16.10306 -98.23359,-59.93693 -106.10431,-75.27496 17.6985,-30.77387 119.4098,79.43354 78.43641,-2.61307 C 3.2026517,550.65719 116.35668,422.3763 102.68297,411.69924 86.39567,400.0544 48.078114,455.73472 28.61773,450.78489 4.4291272,464.231 3.7596774,414.51138 -22.961463,414.64024 Z"
       id="path192"
       inkscape:connector-curvature="0"
       sodipodi:nodetypes="cccccccccccccccccc" />
    <path
       style="fill:url(#linearGradient238);fill-opacity:1;stroke-width:0.26458332"
       d="m 996.90178,411.40298 c -25.20701,0.79344 16.33342,-459.99076 -0.43405,-440.097069 -10.93291,15.408571 144.49857,75.844184 243.83817,183.310709 -18.5948,8.439 -1334.137052,-325.74531 -342.68794,-113.364862 249.27184,-206.707548 -3.38405,50.440309 -3.38405,50.440309 C 892.841,146.56684 245.93157,-198.19362 290.56815,-166.99544 c 27.88313,24.08344 718.31915,475.08214 755.49585,481.0251 30.3496,3.27249 -615.86149,-513.69652 -588.50441,-525.10716 35.38259,-15.0842 745.09221,468.36763 767.30231,436.13727 13.8476,-20.16817 22.6289,-46.18946 15.444,-70.44315 C 1233.149,135.85809 613.19532,-231.04769 608.72494,-251.18813 603.33519,-271.63393 1210.2136,63.525472 1221.3679,46.424695 1228.7939,29.576002 493.64449,275.99333 480.13729,264.36082 460.92191,244.32927 1163.9128,-35.61699 1138.1685,-45.211447 1114.7161,-53.354323 1021.7585,411.2068 996.90178,411.40298 Z"
       id="path195"
       inkscape:connector-curvature="0"
       sodipodi:nodetypes="ccccccccccccccc" />
    <g
       sodipodi:type="inkscape:box3d"
       id="g258"
       style="fill:#0055d4"
       inkscape:perspectiveID="#perspective256"
       inkscape:corner0="-0.78080543 : -0.0061238563 : 0 : 1"
       inkscape:corner7="-0.84758676 : -0.049404557 : 0.25706653 : 1">
      <path
         sodipodi:type="inkscape:box3dside"
         id="path260"
         style="fill:#353564;fill-rule:evenodd;stroke:none;stroke-linejoin:round"
         inkscape:box3dsidetype="6"
         d="M 449.31668,39.805301 V 237.25864 L 320.14319,189.35031 V 98.474317 Z"
         points="449.31668,237.25864 320.14319,189.35031 320.14319,98.474317 449.31668,39.805301 " />
      <path
         sodipodi:type="inkscape:box3dside"
         id="path268"
         style="fill:#afafde;fill-rule:evenodd;stroke:none;stroke-linejoin:round"
         inkscape:box3dsidetype="13"
         d="m 449.31668,237.25864 193.21802,-5.69352 -271.54014,-52.14729 -50.85137,9.93248 z"
         points="642.5347,231.56512 370.99456,179.41783 320.14319,189.35031 449.31668,237.25864 " />
      <path
         sodipodi:type="inkscape:box3dside"
         id="path266"
         style="fill:#d7d7ff;fill-rule:evenodd;stroke:none;stroke-linejoin:round"
         inkscape:box3dsidetype="14"
         d="M 642.5347,-52.404304 V 231.56512 L 370.99456,179.41783 V 73.721032 Z"
         points="642.5347,231.56512 370.99456,179.41783 370.99456,73.721032 642.5347,-52.404304 " />
      <path
         sodipodi:type="inkscape:box3dside"
         id="path270"
         style="fill:#e9e9ff;fill-rule:evenodd;stroke:none;stroke-linejoin:round"
         inkscape:box3dsidetype="11"
         d="M 320.14319,98.474317 370.99456,73.721032 V 179.41783 l -50.85137,9.93248 z"
         points="370.99456,73.721032 370.99456,179.41783 320.14319,189.35031 320.14319,98.474317 " />
      <path
         sodipodi:type="inkscape:box3dside"
         id="path262"
         style="fill:#4d4d9f;fill-rule:evenodd;stroke:none;stroke-linejoin:round"
         inkscape:box3dsidetype="5"
         d="M 449.31668,39.805301 642.5347,-52.404304 370.99456,73.721032 320.14319,98.474317 Z"
         points="642.5347,-52.404304 370.99456,73.721032 320.14319,98.474317 449.31668,39.805301 " />
      <path
         sodipodi:type="inkscape:box3dside"
         id="path264"
         style="fill:#8686bf;fill-rule:evenodd;stroke:none;stroke-linejoin:round"
         inkscape:box3dsidetype="3"
         d="M 449.31668,39.805301 642.5347,-52.404304 V 231.56512 l -193.21802,5.69352 z"
         points="642.5347,-52.404304 642.5347,231.56512 449.31668,237.25864 449.31668,39.805301 " />
    </g>
  </g>
</svg>
